<?xml version="1.0" encoding="UTF-8" standalone="no"?>
<!-- Created with Inkscape (http://www.inkscape.org/) -->

<svg
   xmlns:dc="http://purl.org/dc/elements/1.1/"
   xmlns:cc="http://creativecommons.org/ns#"
   xmlns:rdf="http://www.w3.org/1999/02/22-rdf-syntax-ns#"
   xmlns:svg="http://www.w3.org/2000/svg"
   xmlns="http://www.w3.org/2000/svg"
   xmlns:sodipodi="http://sodipodi.sourceforge.net/DTD/sodipodi-0.dtd"
   xmlns:inkscape="http://www.inkscape.org/namespaces/inkscape"
   id="svg2"
   version="1.1"
   inkscape:version="0.48.3.1 r9886"
   width="300"
   height="300"
   xml:space="preserve"
   sodipodi:docname="github.svg"><metadata
     id="metadata8"><rdf:RDF><cc:Work
         rdf:about=""><dc:format>image/svg+xml</dc:format><dc:type
           rdf:resource="http://purl.org/dc/dcmitype/StillImage" /><dc:title></dc:title></cc:Work></rdf:RDF></metadata><defs
     id="defs6"><clipPath
       clipPathUnits="userSpaceOnUse"
       id="clipPath18"><path
         d="m 0,0 3091,0 0,1766.7 -3091,0 L 0,0 z"
         id="path20"
         inkscape:connector-curvature="0" /></clipPath></defs><sodipodi:namedview
     pagecolor="#b9839c"
     bordercolor="#666666"
     borderopacity="1"
     objecttolerance="10"
     gridtolerance="10"
     guidetolerance="10"
     inkscape:pageopacity="1"
     inkscape:pageshadow="2"
     inkscape:window-width="1366"
     inkscape:window-height="741"
     id="namedview4"
     showgrid="false"
     fit-margin-top="0"
     fit-margin-left="0"
     fit-margin-right="0"
     fit-margin-bottom="0"
     inkscape:zoom="0.87209681"
     inkscape:cx="-83.553854"
     inkscape:cy="126.67149"
     inkscape:window-x="0"
     inkscape:window-y="-5"
     inkscape:window-maximized="1"
     inkscape:current-layer="g14" /><g
     id="g10"
     inkscape:groupmode="layer"
     inkscape:label="ink_ext_XXXXXX"
     transform="matrix(1.25,0,0,-1.25,-43.082,411.81565)"><g
       id="g12"
       transform="scale(0.1,0.1)"><g
         id="g14"><path
           inkscape:connector-curvature="0"
           id="path22"
           style="fill:#ffffff;fill-opacity:1;fill-rule:evenodd;stroke:none"
           d="m 1544.6017,3000.4556 c -512.8887,0 -928.8224,-415.8653 -928.8224,-928.8969 0,-410.3795 266.13553,-758.5249 635.265,-881.3686 46.4677,-8.5134 63.4204,20.1575 63.4204,44.7684 0,22.0506 -0.8039,80.4818 -1.2488,157.9923 -258.409,-56.127 -312.9109,124.5144 -312.9109,124.5144 -42.23084,107.2994 -103.13099,135.8735 -103.13099,135.8735 -84.33059,57.6267 6.36941,56.4691 6.36941,56.4691 93.22024,-6.5746 142.28818,-95.735 142.28818,-95.735 82.8594,-141.9346 217.3984,-100.9469 270.3209,-77.1857 8.445,60.0333 32.4346,100.97 58.9611,124.1838 -206.2616,23.4533 -423.10109,103.1308 -423.10109,459.0713 0,101.4429 36.22096,184.2965 95.62679,249.2451 -9.557,23.4936 -41.4325,117.9798 9.1063,245.8243 0,0 77.984,24.9758 255.4212,-95.2277 74.0835,20.6421 153.5614,30.9064 232.5436,31.3055 78.879,-0.3991 158.3513,-10.6634 232.5489,-31.3055 177.3229,120.2035 255.1987,95.2277 255.1987,95.2277 50.6473,-127.8445 18.7774,-222.3307 9.243,-245.8243 59.5146,-64.9486 95.4673,-147.8022 95.4673,-249.2451 0,-356.8356 -217.1761,-435.3501 -424.105,-458.3359 33.3469,-28.6936 63.0613,-85.3796 63.0613,-172.0255 0,-124.1836 -1.1404,-224.3494 -1.1404,-254.8223 0,-24.8331 16.7303,-53.7263 63.8652,-44.6598 368.77,123.0658 634.6833,470.9944 634.6833,881.26 0,513.0316 -415.9049,928.8969 -928.931,928.8969" /><path
           inkscape:connector-curvature="0"
           id="path40"
           style="fill:none;stroke:#3a7fc3;stroke-width:10;stroke-linecap:round;stroke-linejoin:miter;stroke-miterlimit:10;stroke-opacity:1;stroke-dasharray:none"
           d="m 1230.44,1761.7 0,-5" /></g></g></g></svg>