<?xml version="1.0" encoding="UTF-8" standalone="no"?>
<!-- Created with Inkscape (http://www.inkscape.org/) -->

<svg
   xmlns:osb="http://www.openswatchbook.org/uri/2009/osb"
   xmlns:dc="http://purl.org/dc/elements/1.1/"
   xmlns:cc="http://creativecommons.org/ns#"
   xmlns:rdf="http://www.w3.org/1999/02/22-rdf-syntax-ns#"
   xmlns:svg="http://www.w3.org/2000/svg"
   xmlns="http://www.w3.org/2000/svg"
   xmlns:sodipodi="http://sodipodi.sourceforge.net/DTD/sodipodi-0.dtd"
   xmlns:inkscape="http://www.inkscape.org/namespaces/inkscape"
   width="645.91296"
   height="181.18089"
   id="svg2"
   version="1.1"
   inkscape:version="0.48.3.1 r9886"
   sodipodi:docname="logo.svg"
   inkscape:export-filename="/home/zac/web/warrior/hacks/electrohack/logo.png"
   inkscape:export-xdpi="90"
   inkscape:export-ydpi="90">
  <defs
     id="defs4">
    <marker
       inkscape:stockid="StopL"
       orient="auto"
       refY="0"
       refX="0"
       id="StopL"
       style="overflow:visible">
      <path
         id="path4541"
         d="M 0,5.65 0,-5.65"
         style="fill:none;stroke:#000000;stroke-width:1pt"
         transform="scale(0.8,0.8)"
         inkscape:connector-curvature="0" />
    </marker>
    <marker
       inkscape:stockid="Torso"
       orient="auto"
       refY="0"
       refX="0"
       id="Torso"
       style="overflow:visible">
      <g
         id="g4584"
         transform="scale(0.7,0.7)">
        <path
           id="path4586"
           d="m -4.7792281,-3.239542 c 2.350374,0.3659393 5.30026732,1.9375477 5.03715532,3.62748546 C -0.00518779,2.0778819 -2.2126741,2.6176539 -4.5630471,2.2517169 -6.9134221,1.8857769 -8.521035,0.75201414 -8.257922,-0.93792336 -7.994809,-2.6278615 -7.1296041,-3.6054813 -4.7792281,-3.239542 z"
           style="fill:none;stroke:#000000;stroke-width:1.25"
           inkscape:connector-curvature="0" />
        <path
           id="path4588"
           d="M 4.4598789,0.08866574 C -2.5564571,-4.378332 5.2248769,-3.9061806 -0.84829578,-8.7197331"
           style="fill:none;stroke:#000000;stroke-width:1pt"
           inkscape:connector-curvature="0" />
        <path
           id="path4590"
           d="M 4.9298719,0.05752074 C -1.3872731,1.7494689 1.8027579,5.4782079 -4.9448731,7.5462725"
           style="fill:none;stroke:#000000;stroke-width:1pt"
           inkscape:connector-curvature="0" />
        <rect
           id="rect4592"
           transform="matrix(0.527536,-0.849533,0.887668,0.460484,0,0)"
           y="-1.7408575"
           x="-10.391706"
           height="2.7608147"
           width="2.6366582"
           style="fill-rule:evenodd;stroke-width:1pt" />
        <rect
           id="rect4594"
           transform="matrix(0.671205,-0.741272,0.790802,0.612072,0,0)"
           y="-7.9629307"
           x="4.9587269"
           height="2.8614161"
           width="2.7327356"
           style="fill-rule:evenodd;stroke-width:1pt" />
        <path
           id="path4596"
           transform="matrix(0,-1.109517,1.109517,0,25.96648,19.71619)"
           d="m 16.779951,-28.685045 a 0.60731727,0.60731727 0 1 0 -1.214634,0 0.60731727,0.60731727 0 1 0 1.214634,0 z"
           style="fill:#ff0000;fill-opacity:0.75;fill-rule:evenodd;stroke:#000000;stroke-width:1pt"
           inkscape:connector-curvature="0" />
        <path
           id="path4598"
           transform="matrix(0,-1.109517,1.109517,0,26.8245,16.99126)"
           d="m 16.779951,-28.685045 a 0.60731727,0.60731727 0 1 0 -1.214634,0 0.60731727,0.60731727 0 1 0 1.214634,0 z"
           style="fill:#ff0000;fill-opacity:0.75;fill-rule:evenodd;stroke:#000000;stroke-width:1pt"
           inkscape:connector-curvature="0" />
      </g>
    </marker>
    <marker
       inkscape:stockid="Arrow1Mend"
       orient="auto"
       refY="0"
       refX="0"
       id="Arrow1Mend"
       style="overflow:visible">
      <path
         id="path4381"
         d="M 0,0 5,-5 -12.5,0 5,5 0,0 z"
         style="fill-rule:evenodd;stroke:#000000;stroke-width:1pt"
         transform="matrix(-0.4,0,0,-0.4,-4,0)"
         inkscape:connector-curvature="0" />
    </marker>
    <marker
       inkscape:stockid="Arrow1Send"
       orient="auto"
       refY="0"
       refX="0"
       id="Arrow1Send"
       style="overflow:visible">
      <path
         id="path4387"
         d="M 0,0 5,-5 -12.5,0 5,5 0,0 z"
         style="fill-rule:evenodd;stroke:#000000;stroke-width:1pt"
         transform="matrix(-0.2,0,0,-0.2,-1.2,0)"
         inkscape:connector-curvature="0" />
    </marker>
    <marker
       inkscape:stockid="Arrow1Lstart"
       orient="auto"
       refY="0"
       refX="0"
       id="Arrow1Lstart"
       style="overflow:visible">
      <path
         id="path4372"
         d="M 0,0 5,-5 -12.5,0 5,5 0,0 z"
         style="fill-rule:evenodd;stroke:#000000;stroke-width:1pt"
         transform="matrix(0.8,0,0,0.8,10,0)"
         inkscape:connector-curvature="0" />
    </marker>
    <linearGradient
       id="linearGradient3773"
       osb:paint="solid">
      <stop
         style="stop-color:#000000;stop-opacity:1;"
         offset="0"
         id="stop3775" />
    </linearGradient>
  </defs>
  <sodipodi:namedview
     id="base"
     pagecolor="#ffffff"
     bordercolor="#666666"
     borderopacity="1.0"
     inkscape:pageopacity="0.0"
     inkscape:pageshadow="2"
     inkscape:zoom="0.7"
     inkscape:cx="356.4205"
     inkscape:cy="263.1638"
     inkscape:document-units="px"
     inkscape:current-layer="layer1"
     showgrid="false"
     showguides="false"
     inkscape:guide-bbox="true"
     fit-margin-top="10"
     fit-margin-left="10"
     fit-margin-right="10"
     fit-margin-bottom="10"
     inkscape:window-width="1440"
     inkscape:window-height="900"
     inkscape:window-x="1366"
     inkscape:window-y="-32"
     inkscape:window-maximized="1">
    <sodipodi:guide
       orientation="0,1"
       position="374.50886,61.586319"
       id="guide3847" />
    <sodipodi:guide
       orientation="1,0"
       position="272.16485,61.586319"
       id="guide3849" />
    <sodipodi:guide
       orientation="0,1"
       position="217.30387,197.95692"
       id="guide4027" />
    <sodipodi:guide
       orientation="0,1"
       position="211.11669,180.40552"
       id="guide4029" />
    <sodipodi:guide
       orientation="1,0"
       position="180.55958,195.55781"
       id="guide4053" />
    <sodipodi:guide
       orientation="1,0"
       position="174.56179,193.66377"
       id="guide4055" />
    <sodipodi:guide
       orientation="1,0"
       position="221.9127,185.01434"
       id="guide4057" />
    <sodipodi:guide
       orientation="0,1"
       position="200.51009,185.39315"
       id="guide4059" />
    <sodipodi:guide
       orientation="1,0"
       position="228.41485,190.37127"
       id="guide4061" />
    <sodipodi:guide
       orientation="1,0"
       position="330.73628,110.28198"
       id="guide4321" />
  </sodipodi:namedview>
  <metadata
     id="metadata7">
    <rdf:RDF>
      <cc:Work
         rdf:about="">
        <dc:format>image/svg+xml</dc:format>
        <dc:type
           rdf:resource="http://purl.org/dc/dcmitype/StillImage" />
        <dc:title></dc:title>
      </cc:Work>
    </rdf:RDF>
  </metadata>
  <g
     inkscape:label="Layer 1"
     inkscape:groupmode="layer"
     id="layer1"
     transform="translate(-32.835149,-397.89184)">
    <g
       id="g4206"
       transform="matrix(-0.99485286,0,0,1,358.69663,38.478612)"
       style="stroke:#49a763;stroke-opacity:1">
      <path
         d="m 365.00001,513.07648 c 0,33.92606 -27.50251,61.42857 -61.42857,61.42857 -33.92606,0 -61.42857,-27.50251 -61.42857,-61.42857 0,-33.92607 27.50251,-61.42857 61.42857,-61.42857 33.92606,0 61.42857,27.5025 61.42857,61.42857 z"
         sodipodi:ry="61.42857"
         sodipodi:rx="61.42857"
         sodipodi:cy="513.07648"
         sodipodi:cx="303.57144"
         id="path2985-9-9-5-5"
         style="opacity:0.98000004;fill:none;stroke:#3d3d3d;stroke-width:2.50762963;stroke-linecap:round;stroke-linejoin:bevel;stroke-miterlimit:4;stroke-opacity:1;stroke-dasharray:none"
         sodipodi:type="arc"
         transform="matrix(0.79035102,0,0,0.80484674,-151.53965,65.647607)" />
      <path
         d="m 365.00001,513.07648 c 0,33.92606 -27.50251,61.42857 -61.42857,61.42857 -33.92606,0 -61.42857,-27.50251 -61.42857,-61.42857 0,-33.92607 27.50251,-61.42857 61.42857,-61.42857 33.92606,0 61.42857,27.5025 61.42857,61.42857 z"
         sodipodi:ry="61.42857"
         sodipodi:rx="61.42857"
         sodipodi:cy="513.07648"
         sodipodi:cx="303.57144"
         id="path2985-9-9-3"
         style="opacity:0.98000004;fill:none;stroke:#3d3d3d;stroke-width:3.08120155;stroke-linecap:round;stroke-linejoin:bevel;stroke-miterlimit:4;stroke-opacity:1;stroke-dasharray:none"
         sodipodi:type="arc"
         transform="matrix(0.65250534,0,0,0.64570733,-111.33514,147.6771)" />
      <path
         d="m 365.00001,513.07648 c 0,33.92606 -27.50251,61.42857 -61.42857,61.42857 -33.92606,0 -61.42857,-27.50251 -61.42857,-61.42857 0,-33.92607 27.50251,-61.42857 61.42857,-61.42857 33.92606,0 61.42857,27.5025 61.42857,61.42857 z"
         sodipodi:ry="61.42857"
         sodipodi:rx="61.42857"
         sodipodi:cy="513.07648"
         sodipodi:cx="303.57144"
         id="path2985-9-9-5"
         style="opacity:0.98000004;fill:none;stroke:#3d3d3d;stroke-width:2.50762963;stroke-linecap:round;stroke-linejoin:bevel;stroke-miterlimit:4;stroke-opacity:1;stroke-dasharray:none"
         sodipodi:type="arc"
         transform="matrix(0.79035102,0,0,0.80484674,28.014961,67.208182)" />
      <path
         d="m 365.00001,513.07648 c 0,33.92606 -27.50251,61.42857 -61.42857,61.42857 -33.92606,0 -61.42857,-27.50251 -61.42857,-61.42857 0,-33.92607 27.50251,-61.42857 61.42857,-61.42857 33.92606,0 61.42857,27.5025 61.42857,61.42857 z"
         sodipodi:ry="61.42857"
         sodipodi:rx="61.42857"
         sodipodi:cy="513.07648"
         sodipodi:cx="303.57144"
         id="path2985-9-9"
         style="opacity:0.98000004;fill:none;stroke:#3d3d3d;stroke-width:3.08120155;stroke-linecap:round;stroke-linejoin:bevel;stroke-miterlimit:4;stroke-opacity:1;stroke-dasharray:none"
         sodipodi:type="arc"
         transform="matrix(0.65250534,0,0,0.64570733,69.63254,148.54694)" />
      <path
         inkscape:connector-curvature="0"
         id="path4186-8"
         d="m 186.49147,481.93176 c 1.10015,0.17512 68.02535,0.52536 68.02535,0.52536"
         style="fill:none;stroke:#ffffff;stroke-width:3.01036859;stroke-linecap:butt;stroke-linejoin:miter;stroke-miterlimit:4;stroke-opacity:1;stroke-dasharray:none" />
      <path
         inkscape:connector-curvature="0"
         id="path4186"
         d="m 188.04089,472.01022 c 1.10015,0.17512 68.02535,0.52536 68.02535,0.52536"
         style="fill:none;stroke:#ffffff;stroke-width:3.01036859;stroke-linecap:butt;stroke-linejoin:miter;stroke-miterlimit:4;stroke-opacity:1;stroke-dasharray:none" />
      <path
         sodipodi:nodetypes="cc"
         inkscape:connector-curvature="0"
         id="path3966-3"
         d="M 257.48653,476.71835 218.32492,423.96233"
         style="fill:none;stroke:#ffffff;stroke-width:3;stroke-linecap:square;stroke-linejoin:miter;stroke-miterlimit:4;stroke-opacity:1;stroke-dasharray:none" />
      <path
         sodipodi:nodetypes="cc"
         inkscape:connector-curvature="0"
         id="path3966-4"
         d="M 265.8794,469.75406 226.71779,416.99804"
         style="fill:none;stroke:#ffffff;stroke-width:3;stroke-linecap:square;stroke-linejoin:miter;stroke-miterlimit:4;stroke-opacity:1;stroke-dasharray:none" />
      <path
         sodipodi:nodetypes="cccc"
         inkscape:connector-curvature="0"
         id="path3974"
         d="m 97.256922,471.43172 28.254528,-50.66742 46.71956,63.38708 83.49257,0.78824"
         style="fill:none;stroke:#49a763;stroke-width:2;stroke-linecap:square;stroke-linejoin:miter;stroke-miterlimit:4;stroke-opacity:1;stroke-dasharray:none" />
      <path
         sodipodi:nodetypes="cccc"
         inkscape:connector-curvature="0"
         id="path3976"
         d="m 255.87152,474.55493 -69.49838,-0.50508 34.34519,-49.75001 36.11296,47.47716"
         style="fill:none;stroke:#49a763;stroke-width:2;stroke-linecap:square;stroke-linejoin:miter;stroke-miterlimit:4;stroke-opacity:1;stroke-dasharray:none" />
      <path
         sodipodi:nodetypes="cc"
         inkscape:connector-curvature="0"
         id="path3966"
         d="M 266.25653,466.8912 227.09492,414.13518"
         style="fill:none;stroke:#49a763;stroke-width:2;stroke-linecap:square;stroke-linejoin:miter;stroke-miterlimit:4;stroke-opacity:1;stroke-dasharray:none" />
      <path
         sodipodi:nodetypes="cc"
         inkscape:connector-curvature="0"
         id="path3972-9-5"
         d="M 127.79301,411.49036 96.492705,468.23402"
         style="fill:none;stroke:#ffffff;stroke-width:3;stroke-linecap:square;stroke-linejoin:miter;stroke-miterlimit:4;stroke-opacity:1;stroke-dasharray:none" />
      <path
         sodipodi:nodetypes="cc"
         inkscape:connector-curvature="0"
         id="path3972-9"
         d="M 118.93825,409.94387 87.637946,466.68753"
         style="fill:none;stroke:#ffffff;stroke-width:3;stroke-linecap:square;stroke-linejoin:miter;stroke-miterlimit:4;stroke-opacity:1;stroke-dasharray:none" />
      <path
         transform="matrix(0.95884498,0,0,0.96846036,-25.154552,-26.44895)"
         d="m 318.70312,523.04224 c 0,7.25259 -5.87939,13.13198 -13.13198,13.13198 -7.2526,0 -13.13199,-5.87939 -13.13199,-13.13198 0,-7.2526 5.87939,-13.13199 13.13199,-13.13199 7.25259,0 13.13198,5.87939 13.13198,13.13199 z"
         sodipodi:ry="13.131983"
         sodipodi:rx="13.131983"
         sodipodi:cy="523.04224"
         sodipodi:cx="305.57114"
         id="path3783"
         style="opacity:0.98000004;fill:none;stroke:#a74949;stroke-width:2.07546234;stroke-linecap:round;stroke-linejoin:bevel;stroke-miterlimit:4;stroke-opacity:1;stroke-dasharray:none"
         sodipodi:type="arc" />
      <path
         sodipodi:nodetypes="cc"
         inkscape:connector-curvature="0"
         id="path3968"
         d="m 227.15805,413.8195 14.29904,-19.7286"
         style="fill:none;stroke:#49a763;stroke-width:2;stroke-linecap:square;stroke-linejoin:miter;stroke-miterlimit:4;stroke-opacity:1;stroke-dasharray:none" />
      <path
         sodipodi:nodetypes="cc"
         inkscape:connector-curvature="0"
         id="path3970"
         d="m 221.50528,403.34683 -88.76716,0.88389"
         style="fill:none;stroke:#49a763;stroke-width:2;stroke-linecap:square;stroke-linejoin:miter;stroke-miterlimit:4;stroke-opacity:1;stroke-dasharray:none" />
      <path
         sodipodi:nodetypes="cc"
         inkscape:connector-curvature="0"
         id="path3972"
         d="M 121.47084,409.65263 90.170537,466.39629"
         style="fill:none;stroke:#49a763;stroke-width:2;stroke-linecap:square;stroke-linejoin:miter;stroke-miterlimit:4;stroke-opacity:1;stroke-dasharray:none" />
      <path
         sodipodi:nodetypes="ccc"
         inkscape:connector-curvature="0"
         id="path3978"
         d="m 213.36099,414.46686 -38.83373,54.99842 -39.93019,-54.99999"
         style="fill:none;stroke:#49a763;stroke-width:2.07776427;stroke-linecap:square;stroke-linejoin:miter;stroke-miterlimit:4;stroke-opacity:1;stroke-dasharray:none" />
      <path
         sodipodi:nodetypes="cccc"
         inkscape:connector-curvature="0"
         id="path4023"
         d="m 132.7829,404.86388 c -0.87876,-17.62828 4.48933,-21.45566 16.81331,-23.28674 6.87845,-0.35093 4.77162,-11.44805 -2.15352,-11.12052 -30.86213,1.8869 -25.75092,38.99238 -25.75092,38.99238"
         style="fill:none;stroke:#a74949;stroke-width:2.07792234;stroke-linecap:butt;stroke-linejoin:miter;stroke-miterlimit:3.5999999;stroke-opacity:1;stroke-dasharray:none" />
      <path
         sodipodi:nodetypes="cc"
         inkscape:connector-curvature="0"
         id="path4025"
         d="m 134.85045,414.04775 78.252,0"
         style="fill:none;stroke:#49a763;stroke-width:1.98364222;stroke-linecap:butt;stroke-linejoin:miter;stroke-miterlimit:4;stroke-opacity:1;stroke-dasharray:none" />
      <path
         sodipodi:nodetypes="cccccc"
         inkscape:connector-curvature="0"
         id="path4051"
         d="m 241.23706,393.67958 c 3.09423,0 13.51079,0 13.51079,0 6.50215,0 6.50215,-12.56377 0,-12.56377 l -41.28998,-0.18936 c -5.95739,0 -6.17868,12.68997 0.0631,12.68997 l 15.90991,0"
         style="fill:none;stroke:#a74949;stroke-width:2;stroke-linecap:butt;stroke-linejoin:miter;stroke-miterlimit:4;stroke-opacity:1;stroke-dasharray:none" />
      <path
         transform="matrix(0.95884498,0,0,0.96846036,-206.12224,-27.318788)"
         d="m 318.70312,523.04224 c 0,7.25259 -5.87939,13.13198 -13.13198,13.13198 -7.2526,0 -13.13199,-5.87939 -13.13199,-13.13198 0,-7.2526 5.87939,-13.13199 13.13199,-13.13199 7.25259,0 13.13198,5.87939 13.13198,13.13199 z"
         sodipodi:ry="13.131983"
         sodipodi:rx="13.131983"
         sodipodi:cy="523.04224"
         sodipodi:cx="305.57114"
         id="path3783-9"
         style="opacity:0.98000004;fill:none;stroke:#a74949;stroke-width:2.07546234;stroke-linecap:round;stroke-linejoin:bevel;stroke-miterlimit:4;stroke-opacity:1;stroke-dasharray:none"
         sodipodi:type="arc" />
      <path
         sodipodi:nodetypes="cc"
         inkscape:connector-curvature="0"
         id="path4112"
         d="m 221.68855,403.93125 6.97216,-9.96193"
         style="fill:none;stroke:#49a763;stroke-width:2;stroke-linecap:butt;stroke-linejoin:miter;stroke-miterlimit:4;stroke-opacity:1;stroke-dasharray:none" />
    </g>
    <g
       id="g4327"
       transform="translate(0,4.6142986)">
      <text
         sodipodi:linespacing="125%"
         id="text4271"
         y="459.53101"
         x="361.64499"
         style="font-size:61.07111359px;font-style:normal;font-variant:normal;font-weight:normal;font-stretch:normal;text-align:start;line-height:125%;letter-spacing:-0.59840852px;word-spacing:0px;writing-mode:lr-tb;text-anchor:start;fill:#a74949;fill-opacity:1;stroke:none;font-family:Sans;-inkscape-font-specification:Sans"
         xml:space="preserve"><tspan
           style="font-style:normal;font-variant:normal;font-weight:normal;font-stretch:normal;letter-spacing:0.21999998px;fill:#a74949;fill-opacity:1;stroke:none;font-family:Droid Serif;-inkscape-font-specification:Droid Serif"
           y="459.53101"
           x="361.64499"
           id="tspan4273"
           sodipodi:role="line">SmartBike</tspan><tspan
           id="tspan4281"
           rotate="0"
           style="font-style:normal;font-variant:normal;font-weight:normal;font-stretch:normal;letter-spacing:0.21999998px;fill:#a74949;fill-opacity:1;stroke:none;font-family:Droid Serif;-inkscape-font-specification:Droid Serif"
           y="535.86987"
           x="361.64499"
           sodipodi:role="line" /></text>
      <g
         style="font-size:54.76714706px;font-style:normal;font-variant:normal;font-weight:normal;font-stretch:normal;text-align:start;line-height:125%;letter-spacing:-0.53663874px;word-spacing:0px;writing-mode:lr-tb;text-anchor:start;fill:#000000;fill-opacity:1;stroke:none;font-family:Sans;-inkscape-font-specification:Sans"
         id="text4271-3">
        <path
           d="m 415.74047,551.67566 -14.35364,0 0,-29.31117 -23.08661,0 0,29.31117 -14.4001,0 0,-67.91272 14.4001,0 0,26.61696 23.08661,0 0,-26.61696 14.35364,0 0,67.91272"
           style="font-size:95.13354492px;font-weight:bold;letter-spacing:20.21587753px;fill:none;stroke:#49a763;stroke-width:4;stroke-linecap:round;stroke-miterlimit:4;stroke-opacity:1;stroke-dasharray:none;font-family:Droid Sans;-inkscape-font-specification:Droid Sans Bold"
           id="path4336"
           inkscape:connector-curvature="0" />
        <path
           d="m 491.79157,551.67566 -4.64519,-16.16527 -23.41177,0 -4.69165,16.16527 -14.53945,0 22.06466,-68.19143 17.60528,0 22.15757,68.19143 -14.53945,0 m -7.98973,-28.24277 -4.36648,-14.86462 c -0.18584,-0.55738 -0.46456,-1.47093 -0.83614,-2.74066 -0.37165,-1.26964 -0.77423,-2.6632 -1.20775,-4.18068 -0.40261,-1.54834 -0.78971,-3.09674 -1.16129,-4.64519 -0.37165,-1.54834 -0.63488,-2.86448 -0.78969,-3.94841 -0.1239,0.68135 -0.29422,1.48652 -0.51097,2.4155 -0.18584,0.92909 -0.4181,1.92007 -0.69678,2.97292 -0.24777,1.022 -0.511,2.05942 -0.78968,3.11228 -0.27874,1.05296 -0.54197,2.04393 -0.78968,2.97292 -0.24777,0.92909 -0.48003,1.74974 -0.69678,2.46196 -0.18584,0.7123 -0.32519,1.23876 -0.41807,1.57936 l -4.32003,14.86462 16.58334,0"
           style="font-size:95.13354492px;font-weight:bold;letter-spacing:20.21587753px;fill:none;stroke:#49a763;stroke-width:4;stroke-linecap:round;stroke-miterlimit:4;stroke-opacity:1;stroke-dasharray:none;font-family:Droid Sans;-inkscape-font-specification:Droid Sans Bold"
           id="path4338"
           inkscape:connector-curvature="0" />
        <path
           d="m 563.05811,494.77205 c -2.75619,6e-5 -5.20265,0.542 -7.33941,1.62582 -2.10585,1.05296 -3.8865,2.58587 -5.34197,4.59874 -1.42455,1.982 -2.50842,4.41298 -3.25163,7.29295 -0.74325,2.84909 -1.11487,6.05427 -1.11485,9.61555 -2e-5,3.62328 0.32514,6.84394 0.97549,9.662 0.68127,2.8181 1.70322,5.20263 3.06583,7.1536 1.39353,1.92002 3.1587,3.391 5.29552,4.41293 2.16772,0.99099 4.73806,1.48647 7.71102,1.48646 2.7561,10e-6 5.51225,-0.30967 8.26844,-0.92904 2.78707,-0.61934 5.80644,-1.50193 9.05813,-2.64776 l 0,12.0775 c -1.48652,0.61936 -2.9575,1.14582 -4.41294,1.57937 -1.45554,0.43355 -2.942,0.78968 -4.45938,1.06839 -1.51748,0.27871 -3.08136,0.48001 -4.69165,0.60388 -1.5794,0.15484 -3.28264,0.23226 -5.10971,0.23226 -5.23361,0 -9.77041,-0.83614 -13.61041,-2.50841 -3.84005,-1.67226 -7.01426,-4.02582 -9.52265,-7.06069 -2.50841,-3.03485 -4.36649,-6.68906 -5.57423,-10.96265 -1.20776,-4.27356 -1.81163,-9.02713 -1.81162,-14.26075 -10e-6,-5.14064 0.69677,-9.84776 2.09033,-14.12138 1.39355,-4.30449 3.43743,-8.00516 6.13166,-11.10201 2.69419,-3.09673 6.02324,-5.49675 9.98716,-7.20005 3.96387,-1.73414 8.51616,-2.60124 13.65687,-2.60131 3.37546,7e-5 6.75097,0.43362 10.12652,1.30066 3.40642,0.8362 6.65805,1.99749 9.7549,3.48389 l -4.64519,11.70589 c -2.53942,-1.2077 -5.09428,-2.26061 -7.66457,-3.15873 -2.57038,-0.89802 -5.09427,-1.34705 -7.57166,-1.34711"
           style="font-size:95.13354492px;font-weight:bold;letter-spacing:20.21587753px;fill:none;stroke:#49a763;stroke-width:4;stroke-linecap:round;stroke-miterlimit:4;stroke-opacity:1;stroke-dasharray:none;font-family:Droid Sans;-inkscape-font-specification:Droid Sans Bold"
           id="path4340"
           inkscape:connector-curvature="0" />
        <path
           d="m 666.74809,551.67566 -16.35108,0 -14.85023,-26.85381 -5.64096,8.66682 -0.50508,18.18699 -14.40009,0 0,-67.91272 14.40009,0 0,32.70216 5.66714,-9.61555 15.51494,-23.08661 15.97946,0 -21.69305,30.61182 21.87886,37.3009"
           style="font-size:95.13354492px;font-weight:bold;letter-spacing:20.21587753px;fill:none;stroke:#49a763;stroke-width:4;stroke-linecap:round;stroke-miterlimit:4;stroke-opacity:1;stroke-dasharray:none;font-family:Droid Sans;-inkscape-font-specification:Droid Sans Bold"
           id="path4342"
           inkscape:connector-curvature="0"
           sodipodi:nodetypes="cccccccccccccc" />
      </g>
      <path
         inkscape:connector-curvature="0"
         id="path4325"
         d="m 362.73141,469.6162 303.55084,0"
         style="fill:none;stroke:#3d3d3d;stroke-width:2;stroke-linecap:round;stroke-linejoin:miter;stroke-miterlimit:4;stroke-opacity:1;stroke-dasharray:none;stroke-dashoffset:0;marker-start:none;marker-mid:none;marker-end:none" />
    </g>
  </g>
</svg>
