<?xml version="1.0" standalone="no"?>
<!DOCTYPE svg PUBLIC "-//W3C//DTD SVG 1.1//EN" "http://www.w3.org/Graphics/SVG/1.1/DTD/svg11.dtd" >
<svg xmlns="http://www.w3.org/2000/svg">
<metadata></metadata>
<defs>
<font id="high_pixel-7regular" horiz-adv-x="1228" >
<font-face units-per-em="2048" ascent="1536" descent="-512" />
<missing-glyph horiz-adv-x="500" />
<glyph horiz-adv-x="2048" />
<glyph horiz-adv-x="2048" />
<glyph unicode="&#xd;" />
<glyph unicode=" " />
<glyph unicode="!" horiz-adv-x="409" d="M0 0v205h205v-205h-205zM0 410v1433h205v-1433h-205z" />
<glyph unicode="&#x22;" horiz-adv-x="819" d="M0 1229v614h205v-614h-205zM410 1229v614h204v-614h-204z" />
<glyph unicode="#" d="M0 410v204h205v615h-205v205h205v409h205v-409h204v409h205v-409h205v-205h-205v-615h205v-204h-205v-410h-205v410h-204v-410h-205v410h-205zM410 614h204v615h-204v-615z" />
<glyph unicode="$" d="M0 205v205h205v-205h205v614h-205v205h-205v614h205v205h205v205h204v-205h205v-205h205v-204h-205v204h-205v-614h205v-205h205v-614h-205v-205h-205v-205h-204v205h-205v205h-205zM205 1024h205v614h-205v-614zM614 205h205v614h-205v-614z" />
<glyph unicode="%" horiz-adv-x="1024" d="M0 0v410h205v409h205v410h204v409h205v-409h-205v-410h-204v-409h-205v-410h-205zM0 1229v409h205v-409h-205zM614 0v410h205v-410h-205z" />
<glyph unicode="&#x26;" horiz-adv-x="1638" d="M0 205v614h205v205h-205v614h205v205h614v-205h205v-614h410v-205h-410v-614h410v-205h-410v205h-205v-205h-614v205h-205zM205 205h614v614h-614v-614zM205 1024h614v614h-614v-614zM819 819h205v205h-205v-205z" />
<glyph unicode="'" horiz-adv-x="409" d="M0 1229v614h205v-614h-205z" />
<glyph unicode="(" horiz-adv-x="819" d="M0 205v1433h205v205h409v-205h-409v-1433h409v-205h-409v205h-205z" />
<glyph unicode=")" horiz-adv-x="819" d="M0 0v205h410v1433h-410v205h410v-205h204v-1433h-204v-205h-410z" />
<glyph unicode="*" d="M0 819v205h410v205h-205v205h205v-205h204v205h205v-205h-205v-205h410v-205h-410v-205h205v-204h-205v204h-204v-204h-205v204h205v205h-410z" />
<glyph unicode="+" d="M0 819v205h410v410h204v-410h410v-205h-410v-409h-204v409h-410z" />
<glyph unicode="," horiz-adv-x="614" d="M0 0v205h410v-615h-205v-204h-205v204h205v410h-205z" />
<glyph unicode="-" d="M0 819v205h1024v-205h-1024z" />
<glyph unicode="." horiz-adv-x="409" d="M0 0v205h205v-205h-205z" />
<glyph unicode="/" horiz-adv-x="1024" d="M0 0v410h205v409h205v410h204v409h205v-409h-205v-410h-204v-409h-205v-410h-205z" />
<glyph unicode="0" d="M0 205v1433h205v205h614v-205h205v-1433h-205v-205h-614v205h-205zM205 205h614v819h-205v-205h-204v-205h-205v-409zM205 819h205v205h204v205h205v409h-614v-819z" />
<glyph unicode="1" d="M0 0v205h410v1229h-205v-205h-205v205h205v204h205v205h204v-1638h410v-205h-1024z" />
<glyph unicode="2" d="M0 0v410h205v204h205v205h204v205h205v614h-614v-204h-205v204h205v205h614v-205h205v-614h-205v-205h-205v-205h-204v-204h-205v-205h819v-205h-1024z" />
<glyph unicode="3" d="M0 205v205h205v-205h614v614h-409v205h409v614h-614v-204h-205v204h205v205h614v-205h205v-614h-205v-205h205v-614h-205v-205h-614v205h-205z" />
<glyph unicode="4" d="M0 819v1024h205v-819h614v819h205v-1843h-205v819h-819z" />
<glyph unicode="5" d="M0 205v205h205v-205h614v819h-614v-205h-205v1024h1024v-205h-819v-409h614v-205h205v-819h-205v-205h-614v205h-205z" />
<glyph unicode="6" d="M0 205v1433h205v205h614v-205h205v-204h-205v204h-614v-409h614v-205h205v-819h-205v-205h-614v205h-205zM205 205h614v819h-614v-819z" />
<glyph unicode="7" d="M0 1434v409h1024v-819h-205v-205h-205v-819h-204v819h204v205h205v614h-614v-204h-205z" />
<glyph unicode="8" d="M0 205v614h205v205h-205v614h205v205h614v-205h205v-614h-205v-205h205v-614h-205v-205h-614v205h-205zM205 205h614v614h-614v-614zM205 1024h614v614h-614v-614z" />
<glyph unicode="9" d="M0 205v205h205v-205h614v409h-614v205h-205v819h205v205h614v-205h205v-1433h-205v-205h-614v205h-205zM205 819h614v819h-614v-819z" />
<glyph unicode=":" horiz-adv-x="409" d="M0 410v204h205v-204h-205zM0 1229v205h205v-205h-205z" />
<glyph unicode=";" horiz-adv-x="614" d="M0 0v205h410v-615h-205v-204h-205v204h205v410h-205zM0 1229v205h205v-205h-205z" />
<glyph unicode="&#x3c;" horiz-adv-x="1024" d="M0 819v205h205v205h205v205h204v204h205v-204h-205v-205h-204v-205h-205v-205h205v-205h204v-204h205v-205h-205v205h-204v204h-205v205h-205z" />
<glyph unicode="=" d="M0 614v205h1024v-205h-1024zM0 1024v205h1024v-205h-1024z" />
<glyph unicode="&#x3e;" horiz-adv-x="1024" d="M0 205v205h205v204h205v205h204v205h-204v205h-205v205h-205v204h205v-204h205v-205h204v-205h205v-205h-205v-205h-204v-204h-205v-205h-205z" />
<glyph unicode="?" d="M0 1434v204h205v205h614v-205h205v-614h-205v-205h-205v-409h-204v409h204v205h205v614h-614v-204h-205zM410 0v205h204v-205h-204z" />
<glyph unicode="@" d="M0 205v1433h205v205h614v-205h205v-1228h-614v1024h409v204h-614v-1433h614v-205h-614v205h-205zM614 614h205v615h-205v-615z" />
<glyph unicode="A" d="M0 0v1638h205v205h614v-205h205v-1638h-205v819h-614v-819h-205zM205 1024h614v614h-614v-614z" />
<glyph unicode="B" d="M0 0v1843h819v-205h205v-614h-205v-205h205v-614h-205v-205h-819zM205 205h614v614h-614v-614zM205 1024h614v614h-614v-614z" />
<glyph unicode="C" d="M0 205v1433h205v205h614v-205h205v-204h-205v204h-614v-1433h614v205h205v-205h-205v-205h-614v205h-205z" />
<glyph unicode="D" d="M0 0v1843h819v-205h205v-1433h-205v-205h-819zM205 205h614v1433h-614v-1433z" />
<glyph unicode="E" d="M0 0v1843h1024v-205h-819v-614h614v-205h-614v-614h819v-205h-1024z" />
<glyph unicode="F" d="M0 0v1843h1024v-205h-819v-614h614v-205h-614v-819h-205z" />
<glyph unicode="G" d="M0 205v1433h205v205h614v-205h205v-204h-205v204h-614v-1433h614v614h-205v205h410v-819h-205v-205h-614v205h-205z" />
<glyph unicode="H" d="M0 0v1843h205v-819h614v819h205v-1843h-205v819h-614v-819h-205z" />
<glyph unicode="I" d="M0 0v205h410v1433h-410v205h1024v-205h-410v-1433h410v-205h-1024z" />
<glyph unicode="J" d="M0 205v409h205v-409h614v1433h-614v-204h-205v409h1024v-1638h-205v-205h-614v205h-205z" />
<glyph unicode="K" d="M0 0v1843h205v-819h205v205h204v205h205v409h205v-409h-205v-205h-205v-205h-204v-205h204v-205h205v-204h205v-410h-205v410h-205v204h-204v205h-205v-819h-205z" />
<glyph unicode="L" d="M0 0v1843h205v-1638h819v-205h-1024z" />
<glyph unicode="M" d="M0 0v1843h205v-614h205v-205h204v205h205v614h205v-1843h-205v1024h-205v-410h-204v410h-205v-1024h-205z" />
<glyph unicode="N" d="M0 0v1843h205v-614h205v-205h204v-205h205v1024h205v-1843h-205v614h-205v205h-204v205h-205v-1024h-205z" />
<glyph unicode="O" d="M0 205v1433h205v205h614v-205h205v-1433h-205v-205h-614v205h-205zM205 205h614v1433h-614v-1433z" />
<glyph unicode="P" d="M0 0v1843h819v-205h205v-819h-205v-205h-614v-614h-205zM205 819h614v819h-614v-819z" />
<glyph unicode="Q" d="M0 205v1433h205v205h614v-205h205v-1228h-205v-205h205v-205h-205v205h-205v-205h-409v205h-205zM205 205h409v205h205v1228h-614v-1433z" />
<glyph unicode="R" d="M0 0v1843h819v-205h205v-819h-205v-205h-205v-204h205v-205h205v-205h-205v205h-205v205h-204v204h-205v-614h-205zM205 819h614v819h-614v-819z" />
<glyph unicode="S" d="M0 205v205h205v-205h614v614h-614v205h-205v614h205v205h614v-205h205v-204h-205v204h-614v-614h614v-205h205v-614h-205v-205h-614v205h-205z" />
<glyph unicode="T" d="M0 1638v205h1024v-205h-410v-1638h-204v1638h-410z" />
<glyph unicode="U" d="M0 205v1638h205v-1638h614v1638h205v-1638h-205v-205h-614v205h-205z" />
<glyph unicode="V" d="M0 410v1433h205v-1433h205v-205h204v205h205v1433h205v-1433h-205v-205h-205v-205h-204v205h-205v205h-205z" />
<glyph unicode="W" horiz-adv-x="1638" d="M0 205v1638h205v-1638h409v1024h205v-1024h410v1638h205v-1638h-205v-205h-410v205h-205v-205h-409v205h-205z" />
<glyph unicode="X" d="M0 0v614h205v205h205v205h-205v205h-205v614h205v-614h205v-205h204v205h205v614h205v-614h-205v-205h-205v-205h205v-205h205v-614h-205v614h-205v205h-204v-205h-205v-614h-205z" />
<glyph unicode="Y" d="M0 1229v614h205v-614h205v-205h204v205h205v614h205v-614h-205v-205h-205v-1024h-204v1024h-205v205h-205z" />
<glyph unicode="Z" d="M0 0v614h205v205h205v205h204v205h205v409h-819v205h1024v-614h-205v-205h-205v-205h-204v-205h-205v-409h819v-205h-1024z" />
<glyph unicode="[" horiz-adv-x="819" d="M0 0v1843h614v-205h-409v-1433h409v-205h-614z" />
<glyph unicode="\" horiz-adv-x="1024" d="M0 1229v409h205v-409h205v-410h204v-409h205v-410h-205v410h-204v409h-205v410h-205z" />
<glyph unicode="]" horiz-adv-x="819" d="M0 0v205h410v1433h-410v205h614v-1843h-614z" />
<glyph unicode="^" d="M0 1229v205h205v204h205v205h204v-205h205v-204h205v-205h-205v205h-205v204h-204v-204h-205v-205h-205z" />
<glyph unicode="_" d="M0 0v205h1024v-205h-1024z" />
<glyph unicode="`" horiz-adv-x="614" d="M0 1638v205h205v-205h205v-204h-205v204h-205z" />
<glyph unicode="a" d="M0 205v409h205v205h614v410h-614v-205h-205v205h205v205h614v-205h205v-1229h-819v205h-205zM205 205h614v409h-614v-409z" />
<glyph unicode="b" d="M0 0v1843h205v-409h614v-205h205v-1024h-205v-205h-819zM205 205h614v1024h-614v-1024z" />
<glyph unicode="c" d="M0 205v1024h205v205h614v-205h205v-205h-205v205h-614v-1024h614v205h205v-205h-205v-205h-614v205h-205z" />
<glyph unicode="d" d="M0 205v1024h205v205h614v409h205v-1843h-819v205h-205zM205 205h614v1024h-614v-1024z" />
<glyph unicode="e" d="M0 205v1024h205v205h614v-205h205v-615h-819v-409h614v205h205v-205h-205v-205h-614v205h-205zM205 819h614v410h-614v-410z" />
<glyph unicode="f" d="M0 1024v205h205v409h205v205h409v-205h205v-204h-205v204h-409v-409h409v-205h-409v-1024h-205v1024h-205z" />
<glyph unicode="g" d="M0 -205h205v-205h614v410h-614v205h-205v1024h205v205h614v-205h205v-1639h-205v-204h-614v204h-205v205zM205 205h614v1024h-614v-1024z" />
<glyph unicode="h" d="M0 0v1843h205v-409h614v-205h205v-1229h-205v1229h-614v-1229h-205z" />
<glyph unicode="i" horiz-adv-x="819" d="M0 0v205h205v1024h-205v205h614v-205h-204v-1024h204v-205h-614zM205 1638v205h205v-205h-205z" />
<glyph unicode="j" horiz-adv-x="819" d="M0 -410h410v1639h-410v205h614v-1844h-204v-204h-410v204zM205 1638v205h205v-205h-205z" />
<glyph unicode="k" d="M0 0v1843h205v-1024h205v205h204v205h205v205h205v-205h-205v-205h-205v-205h-204v-205h204v-204h205v-205h205v-205h-205v205h-205v205h-204v204h-205v-614h-205z" />
<glyph unicode="l" horiz-adv-x="819" d="M0 0v205h205v1433h-205v205h410v-1638h204v-205h-614z" />
<glyph unicode="m" horiz-adv-x="1638" d="M0 0v1434h614v-205h205v205h410v-205h205v-1229h-205v1229h-410v-1229h-205v1229h-409v-1229h-205z" />
<glyph unicode="n" d="M0 0v1434h819v-205h205v-1229h-205v1229h-614v-1229h-205z" />
<glyph unicode="o" d="M0 205v1024h205v205h614v-205h205v-1024h-205v-205h-614v205h-205zM205 205h614v1024h-614v-1024z" />
<glyph unicode="p" d="M0 -614v2048h819v-205h205v-1024h-205v-205h-614v-614h-205zM205 205h614v1024h-614v-1024z" />
<glyph unicode="q" d="M0 205v1024h205v205h819v-2048h-205v614h-614v205h-205zM205 205h614v1024h-614v-1024z" />
<glyph unicode="r" d="M0 0v1434h205v-205h205v205h409v-205h205v-205h-205v205h-409v-205h-205v-1024h-205z" />
<glyph unicode="s" d="M0 205v205h205v-205h614v409h-614v205h-205v410h205v205h614v-205h205v-205h-205v205h-614v-410h614v-205h205v-409h-205v-205h-614v205h-205z" />
<glyph unicode="t" d="M0 1024v205h205v614h205v-614h409v-205h-409v-819h409v205h205v-205h-205v-205h-409v205h-205v819h-205z" />
<glyph unicode="u" d="M0 205v1229h205v-1229h614v1229h205v-1229h-205v-205h-614v205h-205z" />
<glyph unicode="v" d="M0 410v1024h205v-1024h205v-205h204v205h205v1024h205v-1024h-205v-205h-205v-205h-204v205h-205v205h-205z" />
<glyph unicode="w" horiz-adv-x="1638" d="M0 205v1229h205v-1229h409v1229h205v-1229h410v1229h205v-1229h-205v-205h-410v205h-205v-205h-409v205h-205z" />
<glyph unicode="x" d="M0 0v410h205v204h205v205h-205v205h-205v410h205v-410h205v-205h204v205h205v410h205v-410h-205v-205h-205v-205h205v-204h205v-410h-205v410h-205v204h-204v-204h-205v-410h-205z" />
<glyph unicode="y" d="M0 -205h205v-205h614v410h-614v205h-205v1229h205v-1229h614v1229h205v-1844h-205v-204h-614v204h-205v205z" />
<glyph unicode="z" d="M0 0v410h205v204h205v205h204v205h205v205h-819v205h1024v-410h-205v-205h-205v-205h-204v-204h-205v-205h819v-205h-1024z" />
<glyph unicode="{" horiz-adv-x="1024" d="M0 819v205h205v614h205v205h409v-205h-409v-614h-205v-205h205v-614h409v-205h-409v205h-205v614h-205z" />
<glyph unicode="|" horiz-adv-x="409" d="M0 0v1843h205v-1843h-205z" />
<glyph unicode="}" horiz-adv-x="1024" d="M0 0v205h410v614h204v205h-204v614h-410v205h410v-205h204v-614h205v-205h-205v-614h-204v-205h-410z" />
<glyph unicode="~" horiz-adv-x="1638" d="M0 410v409h205v205h409v-205h205v-205h410v410h205v-410h-205v-204h-410v204h-205v205h-409v-409h-205z" />
<glyph unicode="&#xa0;" />
<glyph unicode="&#xa1;" horiz-adv-x="409" d="M0 0v1434h205v-1434h-205zM0 1638v205h205v-205h-205z" />
<glyph unicode="&#xa2;" d="M0 205v1024h205v205h205v204h204v-204h205v-205h205v-205h-205v205h-205v-1024h205v205h205v-205h-205v-205h-205v-205h-204v205h-205v205h-205zM205 205h205v1024h-205v-1024z" />
<glyph unicode="&#xa3;" d="M0 0v205h205v819h-205v205h205v409h205v205h409v-205h205v-204h-205v204h-409v-409h409v-205h-409v-819h409v-205h-819z" />
<glyph unicode="&#xa4;" d="M0 410v204h205v615h-205v205h205v-205h614v205h205v-205h-205v-615h205v-204h-205v204h-614v-204h-205zM410 819h204v205h-204v-205z" />
<glyph unicode="&#xa5;" d="M0 1229v614h205v-614h205v-205h204v205h205v614h205v-614h-205v-205h-205v-205h205v-205h-205v-204h205v-205h-205v-205h-204v205h-205v205h205v204h-205v205h205v205h-205v205h-205z" />
<glyph unicode="&#xa6;" horiz-adv-x="409" d="M0 0v819h205v-819h-205zM0 1024v819h205v-819h-205z" />
<glyph unicode="&#xa7;" d="M0 0v205h819v205h-614v204h-205v1024h205v205h819v-205h-819v-204h614v-205h205v-1024h-205v-205h-819zM205 614h614v615h-614v-615z" />
<glyph unicode="&#xa8;" horiz-adv-x="819" d="M0 1638v205h205v-205h-205zM410 1638v205h204v-205h-204z" />
<glyph unicode="&#xa9;" horiz-adv-x="1638" d="M0 205v1433h205v205h1024v-205h205v-1433h-205v-205h-1024v205h-205zM205 205h1024v1433h-1024v-1433zM410 410v1024h614v-205h-410v-615h410v-204h-614z" />
<glyph unicode="&#xaa;" d="M0 819v410h205v205h409v204h-614v205h614v-205h205v-819h205v-205h-205v205h-205v-205h-409v205h-205zM205 819h409v410h-409v-410z" />
<glyph unicode="&#xab;" horiz-adv-x="1433" d="M0 614v410h205v205h205v205h204v-205h-204v-205h-205v-410h205v-204h204v-205h-204v205h-205v204h-205zM614 614v410h205v205h205v205h205v-205h-205v-205h-205v-410h205v-204h205v-205h-205v205h-205v204h-205z" />
<glyph unicode="&#xac;" d="M0 1638v205h1024v-614h-205v409h-819z" />
<glyph unicode="&#xad;" horiz-adv-x="819" d="M0 819v205h614v-205h-614z" />
<glyph unicode="&#xae;" horiz-adv-x="1638" d="M0 205v1433h205v205h1024v-205h205v-1433h-205v-205h-1024v205h-205zM205 205h1024v1433h-1024v-1433zM410 410v1024h614v-410h-205v-205h205v-409h-205v409h-205v-409h-204zM614 1024h205v205h-205v-205z" />
<glyph unicode="&#xb0;" horiz-adv-x="1024" d="M0 1229v409h205v205h409v-205h205v-409h-205v-205h-409v205h-205zM205 1229h409v409h-409v-409z" />
<glyph unicode="&#xb1;" d="M0 0v205h1024v-205h-1024zM0 819v205h410v410h204v-410h410v-205h-410v-409h-204v409h-410z" />
<glyph unicode="&#xb2;" horiz-adv-x="1024" d="M0 819v410h205v205h409v204h-614v205h614v-205h205v-204h-205v-205h-409v-205h614v-205h-819z" />
<glyph unicode="&#xb3;" horiz-adv-x="1024" d="M0 819v205h614v205h-409v205h409v204h-614v205h614v-205h205v-204h-205v-205h205v-205h-205v-205h-614z" />
<glyph unicode="&#xb4;" horiz-adv-x="614" d="M0 1434v204h205v205h205v-205h-205v-204h-205z" />
<glyph unicode="&#xb5;" d="M0 -205v1639h205v-1024h205v-205h204v205h205v1024h205v-1434h-205v205h-205v-205h-204v205h-205v-410h-205z" />
<glyph unicode="&#xb6;" d="M0 1229v614h1024v-205h-205v-1638h-205v1638h-204v-1638h-205v1229h-205z" />
<glyph unicode="&#xb7;" horiz-adv-x="409" d="M0 819v205h205v-205h-205z" />
<glyph unicode="&#xb8;" horiz-adv-x="819" d="M0 -205h410v205h204v-205h-204v-205h-410v205z" />
<glyph unicode="&#xb9;" horiz-adv-x="819" d="M0 819v205h205v614h-205v205h410v-819h204v-205h-614z" />
<glyph unicode="&#xba;" horiz-adv-x="1024" d="M0 1024v614h205v205h409v-205h205v-614h-205v-205h-409v205h-205zM205 1024h409v614h-409v-614z" />
<glyph unicode="&#xbb;" horiz-adv-x="1433" d="M0 205v205h205v204h205v410h-205v205h-205v205h205v-205h205v-205h204v-410h-204v-204h-205v-205h-205zM614 205v205h205v204h205v410h-205v205h-205v205h205v-205h205v-205h205v-410h-205v-204h-205v-205h-205z" />
<glyph unicode="&#xbc;" horiz-adv-x="2252" d="M0 819v205h205v614h-205v205h410v-819h204v-205h-614zM614 0v410h205v409h205v410h205v409h205v-409h-205v-410h-205v-409h-205v-410h-205zM1229 0v614h205v-409h409v409h205v-1024h-205v410h-614z" />
<glyph unicode="&#xbd;" horiz-adv-x="2252" d="M0 819v205h205v614h-205v205h410v-819h204v-205h-614zM614 0v410h205v409h205v410h205v409h205v-409h-205v-410h-205v-409h-205v-410h-205zM1229 0h205v205h409v205h-614v204h614v-204h205v-205h-205v-205h-409v-205h614v-205h-819v410z" />
<glyph unicode="&#xbe;" horiz-adv-x="2252" d="M0 819v205h614v205h-409v205h409v204h-614v205h614v-205h205v-204h-205v-205h205v-205h-205v-205h-614zM614 0v410h205v409h205v410h205v409h205v-409h-205v-410h-205v-409h-205v-410h-205zM1229 0v614h205v-409h409v409h205v-1024h-205v410h-614z" />
<glyph unicode="&#xbf;" d="M0 205v614h205v205h205v410h204v-410h-204v-205h-205v-614h614v205h205v-205h-205v-205h-614v205h-205zM410 1638v205h204v-205h-204z" />
<glyph unicode="&#xc0;" d="M0 0v1638h205v205h614v-205h205v-1638h-205v819h-614v-819h-205zM205 1024h614v614h-614v-614zM205 2253v205h205v-205h204v-205h-204v205h-205z" />
<glyph unicode="&#xc1;" d="M0 0v1638h205v205h614v-205h205v-1638h-205v819h-614v-819h-205zM205 1024h614v614h-614v-614zM410 2048v205h204v205h205v-205h-205v-205h-204z" />
<glyph unicode="&#xc2;" d="M0 0v1638h205v205h614v-205h205v-1638h-205v819h-614v-819h-205zM0 2048v205h205v205h205v-205h-205v-205h-205zM205 1024h614v614h-614v-614zM614 2253v205h205v-205h205v-205h-205v205h-205z" />
<glyph unicode="&#xc3;" d="M0 0v1638h205v205h614v-205h205v-1638h-205v819h-614v-819h-205zM205 1024h614v614h-614v-614zM205 2048v205h205v205h204v-205h205v205h205v-205h-205v-205h-205v205h-204v-205h-205z" />
<glyph unicode="&#xc4;" d="M0 0v1638h205v205h614v-205h205v-1638h-205v819h-614v-819h-205zM205 1024h614v614h-614v-614zM205 2048v205h205v-205h-205zM614 2048v205h205v-205h-205z" />
<glyph unicode="&#xc5;" d="M0 0v1638h205v205h205v205h-205v205h205v205h204v-205h205v-205h-205v-205h205v-205h205v-1638h-205v819h-614v-819h-205zM205 1024h614v612l-614 2v-614zM410 2048h204v205h-204v-205z" />
<glyph unicode="&#xc6;" horiz-adv-x="2048" d="M0 0v1638h205v205h1638v-205h-819v-614h614v-205h-614v-614h819v-205h-1024v819h-614v-819h-205zM205 1024h614v614h-614v-614z" />
<glyph unicode="&#xc7;" d="M0 -205h410v205h-205v205h-205v1433h205v205h614v-205h205v-204h-205v204h-614v-1433h614v205h205v-205h-205v-205h-205v-205h-204v-205h-410v205z" />
<glyph unicode="&#xc8;" d="M0 0v1843h1024v-205h-819v-614h614v-205h-614v-614h819v-205h-1024zM205 2253v205h205v-205h204v-205h-204v205h-205z" />
<glyph unicode="&#xc9;" d="M0 0v1843h1024v-205h-819v-614h614v-205h-614v-614h819v-205h-1024zM410 2048v205h204v205h205v-205h-205v-205h-204z" />
<glyph unicode="&#xca;" d="M0 0v1843h1024v-205h-819v-614h614v-205h-614v-614h819v-205h-1024zM0 2048v205h205v205h205v-205h-205v-205h-205zM614 2253v205h205v-205h205v-205h-205v205h-205z" />
<glyph unicode="&#xcb;" d="M0 0v1843h1024v-205h-819v-614h614v-205h-614v-614h819v-205h-1024zM205 2048v205h205v-205h-205zM614 2048v205h205v-205h-205z" />
<glyph unicode="&#xcc;" d="M0 0v205h410v1433h-410v205h1024v-205h-410v-1433h410v-205h-1024zM205 2253v205h205v-205h204v-205h-204v205h-205z" />
<glyph unicode="&#xcd;" d="M0 0v205h410v1433h-410v205h1024v-205h-410v-1433h410v-205h-1024zM410 2048v205h204v205h205v-205h-205v-205h-204z" />
<glyph unicode="&#xce;" d="M0 0v205h410v1433h-410v205h1024v-205h-410v-1433h410v-205h-1024zM0 2048v205h205v205h205v-205h-205v-205h-205zM614 2253v205h205v-205h205v-205h-205v205h-205z" />
<glyph unicode="&#xcf;" d="M0 0v205h410v1433h-410v205h1024v-205h-410v-1433h410v-205h-1024zM205 2048v205h205v-205h-205zM614 2048v205h205v-205h-205z" />
<glyph unicode="&#xd0;" horiz-adv-x="1433" d="M0 819v205h205v819h819v-205h205v-1433h-205v-205h-819v819h-205zM410 205h614v1433h-614v-614h409v-205h-409v-614z" />
<glyph unicode="&#xd1;" d="M0 0v1843h205v-614h205v-205h204v-205h205v1024h205v-1843h-205v614h-205v205h-204v205h-205v-1024h-205zM205 2048v205h205v205h204v-205h205v205h205v-205h-205v-205h-205v205h-204v-205h-205z" />
<glyph unicode="&#xd2;" d="M0 205v1433h205v205h614v-205h205v-1433h-205v-205h-614v205h-205zM205 205h614v1433h-614v-1433zM205 2253v205h205v-205h204v-205h-204v205h-205z" />
<glyph unicode="&#xd3;" d="M0 205v1433h205v205h614v-205h205v-1433h-205v-205h-614v205h-205zM205 205h614v1433h-614v-1433zM410 2048v205h204v205h205v-205h-205v-205h-204z" />
<glyph unicode="&#xd4;" d="M0 205v1433h205v205h614v-205h205v-1433h-205v-205h-614v205h-205zM0 2048v205h205v205h205v-205h-205v-205h-205zM205 205h614v1433h-614v-1433zM614 2253v205h205v-205h205v-205h-205v205h-205z" />
<glyph unicode="&#xd5;" d="M0 205v1433h205v205h614v-205h205v-1433h-205v-205h-614v205h-205zM205 205h614v1433h-614v-1433zM205 2048v205h205v205h204v-205h205v205h205v-205h-205v-205h-205v205h-204v-205h-205z" />
<glyph unicode="&#xd6;" d="M0 205v1433h205v205h614v-205h205v-1433h-205v-205h-614v205h-205zM205 205h614v1433h-614v-1433zM205 2048v205h205v-205h-205zM614 2048v205h205v-205h-205z" />
<glyph unicode="&#xd7;" d="M0 410v204h205v205h205v205h-205v205h-205v205h205v-205h205v-205h204v205h205v205h205v-205h-205v-205h-205v-205h205v-205h205v-204h-205v204h-205v205h-204v-205h-205v-204h-205z" />
<glyph unicode="&#xd8;" horiz-adv-x="1638" d="M0 205v205h205v1228h205v205h614v-205h410v-204h-205v-1229h-205v-205h-614v205h-410zM410 205h614v819h-205v-205h-205v-205h-204v-409zM410 819h204v205h205v205h205v407l-614 2v-819z" />
<glyph unicode="&#xd9;" d="M0 205v1638h205v-1638h614v1638h205v-1638h-205v-205h-614v205h-205zM205 2253v205h205v-205h204v-205h-204v205h-205z" />
<glyph unicode="&#xda;" d="M0 205v1638h205v-1638h614v1638h205v-1638h-205v-205h-614v205h-205zM410 2048v205h204v205h205v-205h-205v-205h-204z" />
<glyph unicode="&#xdb;" d="M0 205v1638h205v-1638h614v1638h205v-1638h-205v-205h-614v205h-205zM0 2048v205h205v205h205v-205h-205v-205h-205zM614 2253v205h205v-205h205v-205h-205v205h-205z" />
<glyph unicode="&#xdc;" d="M0 205v1638h205v-1638h614v1638h205v-1638h-205v-205h-614v205h-205zM205 2048v205h205v-205h-205zM614 2048v205h205v-205h-205z" />
<glyph unicode="&#xdd;" d="M0 1229v614h205v-614h205v-205h204v205h205v614h205v-614h-205v-205h-205v-1024h-204v1024h-205v205h-205zM410 2048v205h204v205h205v-205h-205v-205h-204z" />
<glyph unicode="&#xde;" d="M0 0v1843h205v-205h614v-204h205v-1024h-205v-205h-614v-205h-205zM205 410h614v1024h-614v-1024z" />
<glyph unicode="&#xdf;" d="M0 0v1638h205v205h409v-205h205v-819h205v-614h-205v-205h-409v205h409v614h-614v-819h-205zM205 1024h409v614h-409v-614z" />
<glyph unicode="&#xe0;" d="M0 205v409h205v205h614v410h-614v-205h-205v205h205v205h614v-205h205v-1229h-819v205h-205zM205 205h614v409h-614v-409zM205 1843v205h205v-205h204v-205h-204v205h-205z" />
<glyph unicode="&#xe1;" d="M0 205v409h205v205h614v410h-614v-205h-205v205h205v205h614v-205h205v-1229h-819v205h-205zM205 205h614v409h-614v-409zM410 1638v205h204v205h205v-205h-205v-205h-204z" />
<glyph unicode="&#xe2;" d="M0 205v409h205v205h614v410h-614v-205h-205v205h205v205h614v-205h205v-1229h-819v205h-205zM0 1638v205h205v205h205v-205h-205v-205h-205zM205 205h614v409h-614v-409zM614 1843v205h205v-205h205v-205h-205v205h-205z" />
<glyph unicode="&#xe3;" d="M0 205v409h205v205h614v410h-614v-205h-205v205h205v205h614v-205h205v-1229h-819v205h-205zM205 205h614v409h-614v-409zM205 1638v205h205v205h204v-205h205v205h205v-205h-205v-205h-205v205h-204v-205h-205z" />
<glyph unicode="&#xe4;" d="M0 205v409h205v205h614v410h-614v-205h-205v205h205v205h614v-205h205v-1229h-819v205h-205zM205 205h614v409h-614v-409zM205 1638v205h205v-205h-205zM614 1638v205h205v-205h-205z" />
<glyph unicode="&#xe5;" d="M0 205v409h205v205h614v410h-614v-205h-205v205h205v205h614v-205h205v-1229h-819v205h-205zM205 205h614v409h-614v-409zM205 1843v205h205v205h204v-205h205v-205h-205v-205h-204v205h-205zM410 1843h204v205h-204v-205z" />
<glyph unicode="&#xe6;" horiz-adv-x="2048" d="M0 205v409h205v205h614v410h-614v-205h-205v205h205v205h614v-205h205v205h614v-205h205v-615h-819v-409h614v205h205v-205h-205v-205h-614v205h-205v-205h-614v205h-205zM205 205h614v409h-614v-409zM1024 819h614v408l-614 2v-410z" />
<glyph unicode="&#xe7;" d="M0 -205h410v205h-205v205h-205v1024h205v205h614v-205h205v-205h-205v205h-614v-1024h614v205h205v-205h-205v-205h-205v-205h-204v-205h-410v205z" />
<glyph unicode="&#xe8;" d="M0 205v1024h205v205h614v-205h205v-615h-819v-409h614v205h205v-205h-205v-205h-614v205h-205zM205 819h614v410h-614v-410zM205 1843v205h205v-205h204v-205h-204v205h-205z" />
<glyph unicode="&#xe9;" d="M0 205v1024h205v205h614v-205h205v-615h-819v-409h614v205h205v-205h-205v-205h-614v205h-205zM205 819h614v410h-614v-410zM410 1638v205h204v205h205v-205h-205v-205h-204z" />
<glyph unicode="&#xea;" d="M0 205v1024h205v205h614v-205h205v-615h-819v-409h614v205h205v-205h-205v-205h-614v205h-205zM0 1638v205h205v205h205v-205h-205v-205h-205zM205 819h614v410h-614v-410zM614 1843v205h205v-205h205v-205h-205v205h-205z" />
<glyph unicode="&#xeb;" d="M0 205v1024h205v205h614v-205h205v-615h-819v-409h614v205h205v-205h-205v-205h-614v205h-205zM205 819h614v410h-614v-410zM205 1638v205h205v-205h-205zM614 1638v205h205v-205h-205z" />
<glyph unicode="&#xec;" horiz-adv-x="819" d="M0 0v205h205v1024h-205v205h614v-205h-204v-1024h204v-205h-614zM0 1843v205h205v-205h205v-205h-205v205h-205z" />
<glyph unicode="&#xed;" horiz-adv-x="819" d="M0 0v205h205v1024h-205v205h614v-205h-204v-1024h204v-205h-614zM205 1638v205h205v205h204v-205h-204v-205h-205z" />
<glyph unicode="&#xee;" d="M0 1638v205h205v205h205v-205h-205v-205h-205zM205 0v205h205v1024h-205v205h614v-205h-205v-1024h205v-205h-614zM614 1843v205h205v-205h205v-205h-205v205h-205z" />
<glyph unicode="&#xef;" horiz-adv-x="819" d="M0 0v205h205v1024h-205v205h614v-205h-204v-1024h204v-205h-614zM0 1638v205h205v-205h-205zM410 1638v205h204v-205h-204z" />
<glyph unicode="&#xf0;" d="M0 205v1024h205v205h614v204h-614v205h614v-205h205v-1433h-205v-205h-614v205h-205zM205 205h614v1024h-614v-1024z" />
<glyph unicode="&#xf1;" d="M0 0v1434h819v-205h205v-1229h-205v1229h-614v-1229h-205zM205 1638v205h205v205h204v-205h205v205h205v-205h-205v-205h-205v205h-204v-205h-205z" />
<glyph unicode="&#xf2;" d="M0 205v1024h205v205h614v-205h205v-1024h-205v-205h-614v205h-205zM205 205h614v1024h-614v-1024zM205 1843v205h205v-205h204v-205h-204v205h-205z" />
<glyph unicode="&#xf3;" d="M0 205v1024h205v205h614v-205h205v-1024h-205v-205h-614v205h-205zM205 205h614v1024h-614v-1024zM410 1638v205h204v205h205v-205h-205v-205h-204z" />
<glyph unicode="&#xf4;" d="M0 205v1024h205v205h614v-205h205v-1024h-205v-205h-614v205h-205zM0 1638v205h205v205h205v-205h-205v-205h-205zM205 205h614v1024h-614v-1024zM614 1843v205h205v-205h205v-205h-205v205h-205z" />
<glyph unicode="&#xf5;" d="M0 205v1024h205v205h614v-205h205v-1024h-205v-205h-614v205h-205zM205 205h614v1024h-614v-1024zM205 1638v205h205v205h204v-205h205v205h205v-205h-205v-205h-205v205h-204v-205h-205z" />
<glyph unicode="&#xf6;" d="M0 205v1024h205v205h614v-205h205v-1024h-205v-205h-614v205h-205zM205 205h614v1024h-614v-1024zM205 1638v205h205v-205h-205zM614 1638v205h205v-205h-205z" />
<glyph unicode="&#xf7;" d="M0 819v205h1024v-205h-1024zM410 410v204h204v-204h-204zM410 1229v205h204v-205h-204z" />
<glyph unicode="&#xf8;" horiz-adv-x="1638" d="M0 0v205h205v1024h205v205h614v-205h205v205h205v-205h-205v-1024h-205v-205h-614v205h-205v-205h-205zM410 205h614v614h-205v-205h-205v-204h-204v-205zM410 614h204v205h205v205h205v203l-614 2v-615z" />
<glyph unicode="&#xf9;" d="M0 205v1229h205v-1229h614v1229h205v-1229h-205v-205h-614v205h-205zM205 1843v205h205v-205h204v-205h-204v205h-205z" />
<glyph unicode="&#xfa;" d="M0 205v1229h205v-1229h614v1229h205v-1229h-205v-205h-614v205h-205zM410 1638v205h204v205h205v-205h-205v-205h-204z" />
<glyph unicode="&#xfb;" d="M0 205v1229h205v-1229h614v1229h205v-1229h-205v-205h-614v205h-205zM0 1638v205h205v205h205v-205h-205v-205h-205zM614 1843v205h205v-205h205v-205h-205v205h-205z" />
<glyph unicode="&#xfc;" d="M0 205v1229h205v-1229h614v1229h205v-1229h-205v-205h-614v205h-205zM205 1638v205h205v-205h-205zM614 1638v205h205v-205h-205z" />
<glyph unicode="&#xfd;" d="M0 -205h205v-205h614v410h-614v205h-205v1229h205v-1229h614v1229h205v-1844h-205v-204h-614v204h-205v205zM410 1638v205h204v205h205v-205h-205v-205h-204z" />
<glyph unicode="&#xfe;" horiz-adv-x="1226" d="M0 -614v2457h205v-614h614v-205h205v-819h-205v-205h-614v-614h-205zM205 205h614v819h-614v-819z" />
<glyph unicode="&#xff;" d="M0 -205h205v-205h614v410h-614v205h-205v1229h205v-1229h614v1229h205v-1844h-205v-204h-614v204h-205v205zM205 1638v205h205v-205h-205zM614 1638v205h205v-205h-205z" />
<glyph unicode="&#x152;" horiz-adv-x="2048" d="M0 205v1433h205v205h1638v-205h-819v-614h614v-205h-614v-614h819v-205h-1638v205h-205zM205 205h614v1433h-614v-1433z" />
<glyph unicode="&#x153;" horiz-adv-x="2048" d="M0 205v1024h205v205h614v-205h205v205h614v-205h205v-615h-819v-409h614v205h205v-205h-205v-205h-614v205h-205v-205h-614v205h-205zM205 205h614v1024h-614v-1024zM1024 819h614v410h-614v-410z" />
<glyph unicode="&#x178;" d="M0 1229v614h205v-614h205v-205h204v205h205v614h205v-614h-205v-205h-205v-1024h-204v1024h-205v205h-205zM205 2048v205h205v-205h-205zM614 2048v205h205v-205h-205z" />
<glyph unicode="&#x2c6;" horiz-adv-x="819" d="M0 1434v204h205v205h205v-205h204v-204h-204v204h-205v-204h-205z" />
<glyph unicode="&#x2dc;" d="M0 1229v409h205v205h205v-205h204v-204h205v409h205v-409h-205v-205h-205v205h-204v204h-205v-409h-205z" />
<glyph unicode="&#x2000;" horiz-adv-x="1229" />
<glyph unicode="&#x2001;" horiz-adv-x="2458" />
<glyph unicode="&#x2002;" horiz-adv-x="1229" />
<glyph unicode="&#x2003;" horiz-adv-x="2458" />
<glyph unicode="&#x2004;" horiz-adv-x="819" />
<glyph unicode="&#x2005;" horiz-adv-x="614" />
<glyph unicode="&#x2006;" horiz-adv-x="409" />
<glyph unicode="&#x2007;" horiz-adv-x="409" />
<glyph unicode="&#x2008;" horiz-adv-x="307" />
<glyph unicode="&#x2009;" horiz-adv-x="491" />
<glyph unicode="&#x200a;" horiz-adv-x="136" />
<glyph unicode="&#x2010;" d="M0 819v205h1024v-205h-1024z" />
<glyph unicode="&#x2011;" d="M0 819v205h1024v-205h-1024z" />
<glyph unicode="&#x2012;" d="M0 819v205h1024v-205h-1024z" />
<glyph unicode="&#x2013;" d="M0 819v205h1024v-205h-1024z" />
<glyph unicode="&#x2014;" horiz-adv-x="1433" d="M0 819v205h1229v-205h-1229z" />
<glyph unicode="&#x2018;" horiz-adv-x="614" d="M0 1638v615h205v205h205v-205h-205v-410h205v-205h-410z" />
<glyph unicode="&#x2019;" horiz-adv-x="614" d="M0 1024v205h205v409h-205v205h410v-614h-205v-205h-205z" />
<glyph unicode="&#x201a;" horiz-adv-x="614" d="M0 0v205h410v-615h-205v-204h-205v204h205v410h-205z" />
<glyph unicode="&#x201c;" d="M0 1638v615h205v205h205v-205h-205v-410h205v-205h-410zM614 1638v615h205v205h205v-205h-205v-410h205v-205h-410z" />
<glyph unicode="&#x201d;" d="M0 1024v205h205v409h-205v205h410v-614h-205v-205h-205zM614 1024v205h205v409h-205v205h410v-614h-205v-205h-205z" />
<glyph unicode="&#x201e;" d="M0 0v205h410v-615h-205v-204h-205v204h205v410h-205zM614 0v205h410v-615h-205v-204h-205v204h205v410h-205z" />
<glyph unicode="&#x2022;" horiz-adv-x="614" d="M0 819v410h410v-410h-410z" />
<glyph unicode="&#x2026;" d="M0 0v205h205v-205h-205zM410 0v205h204v-205h-204zM819 0v205h205v-205h-205z" />
<glyph unicode="&#x202f;" horiz-adv-x="491" />
<glyph unicode="&#x2039;" horiz-adv-x="819" d="M0 614v410h205v205h205v205h204v-205h-204v-205h-205v-410h205v-204h204v-205h-204v205h-205v204h-205z" />
<glyph unicode="&#x203a;" horiz-adv-x="819" d="M0 205v205h205v204h205v410h-205v205h-205v205h205v-205h205v-205h204v-410h-204v-204h-205v-205h-205z" />
<glyph unicode="&#x205f;" horiz-adv-x="614" />
<glyph unicode="&#x20ac;" horiz-adv-x="1433" d="M0 614v205h205v205h-205v205h205v409h205v205h614v-205h205v-204h-205v204h-614v-409h614v-205h-614v-205h614v-205h-614v-409h614v205h205v-205h-205v-205h-614v205h-205v409h-205z" />
<glyph unicode="&#x2122;" horiz-adv-x="1843" d="M0 1434v204h819v-204h205v-205h205v205h205v204h204v-1024h-204v615h-205v-205h-205v205h-205v-615h-205v820h-204v-820h-205v820h-205z" />
<glyph unicode="&#xe000;" horiz-adv-x="1433" d="M0 0v1434h1434v-1434h-1434z" />
</font>
</defs>
</svg>
