<?xml version="1.0" encoding="UTF-8" standalone="no"?>
<!-- Created with Inkscape (http://www.inkscape.org/) -->

<svg
   xmlns:dc="http://purl.org/dc/elements/1.1/"
   xmlns:cc="http://creativecommons.org/ns#"
   xmlns:rdf="http://www.w3.org/1999/02/22-rdf-syntax-ns#"
   xmlns:svg="http://www.w3.org/2000/svg"
   xmlns="http://www.w3.org/2000/svg"
   xmlns:sodipodi="http://sodipodi.sourceforge.net/DTD/sodipodi-0.dtd"
   xmlns:inkscape="http://www.inkscape.org/namespaces/inkscape"
   width="458.21875"
   height="304.40625"
   id="svg4404"
   version="1.1"
   inkscape:version="0.48.3.1 r9886"
   sodipodi:docname="circuit.svg">
  <defs
     id="defs4406" />
  <sodipodi:namedview
     id="base"
     pagecolor="#ffffff"
     bordercolor="#666666"
     borderopacity="1.0"
     inkscape:pageopacity="0.0"
     inkscape:pageshadow="2"
     inkscape:zoom="0.98994949"
     inkscape:cx="249.9026"
     inkscape:cy="238.47905"
     inkscape:document-units="px"
     inkscape:current-layer="layer1"
     showgrid="false"
     fit-margin-top="0"
     fit-margin-left="0"
     fit-margin-right="0"
     fit-margin-bottom="0"
     inkscape:window-width="1600"
     inkscape:window-height="875"
     inkscape:window-x="0"
     inkscape:window-y="-7"
     inkscape:window-maximized="1"
     showguides="true"
     inkscape:guide-bbox="true" />
  <metadata
     id="metadata4409">
    <rdf:RDF>
      <cc:Work
         rdf:about="">
        <dc:format>image/svg+xml</dc:format>
        <dc:type
           rdf:resource="http://purl.org/dc/dcmitype/StillImage" />
        <dc:title></dc:title>
      </cc:Work>
    </rdf:RDF>
  </metadata>
  <g
     inkscape:label="Layer 1"
     inkscape:groupmode="layer"
     id="layer1"
     transform="translate(-187.74619,-481.53051)">
    <path
       style="fill:#000000;fill-opacity:1;opacity:0.1"
       d="m 209.375,4.1875 c -1.83639,0 -3.41557,1.0221843 -4.28125,2.5 l -3.4375,0 -3.09375,0 -4.0625,4 -4.0625,4 0,6.125 0,6.15625 c -2.83851,0.18617 -3.375,0.83381 -3.375,6.46875 0,2.15298 -1.13636,5.07956 1.71875,4.625 l 1.71875,0 -0.0625,16.34375 -0.0937,16.34375 -4.8125,4.875 -4.78125,4.875 -8.8125,0 c -1.41758,0 -2.001,-0.15936 -2,2.09375 0.002,4.43122 0,8.5 0,8.5 l -4.59375,4.8125 -4.59375,4.8125 -0.1875,20.21875 c -0.106,11.11816 -0.0625,24.46875 -0.0625,24.46875 l -0.1875,8.9375 4.9375,5.6875 3.5,3.625 7.09375,0 7.125,0 -0.0625,34.90625 c -1.0611,0.22981 -1.875,1.18062 -1.875,2.3125 l 0,9.25 c 0,1.30518 1.06982,2.34375 2.375,2.34375 l 3.15625,0 c 1.30518,0 2.375,-1.03857 2.375,-2.34375 l 0,-9.25 c 0,-1.11901 -0.80086,-2.03815 -1.84375,-2.28125 l 0,-4.1875 -0.0312,-7.03125 c 0.34567,0.0758 0.72532,0.125 1.09375,0.125 2.75459,0 4.96875,-2.24541 4.96875,-5 0,-2.75459 -2.21416,-4.96875 -4.96875,-4.96875 -0.36854,0 -0.74798,0.0491 -1.09375,0.125 l 0,-1.5625 0,-6.21875 0,-6.21875 58.90625,0 56.3125,0 c 0.32626,0.90887 1.16359,1.5625 2.1875,1.5625 l 9.28125,0 c 1.02506,0 1.86208,-0.65203 2.1875,-1.5625 l 9.15625,0 6.53125,0 7.25,7.40625 7.28125,7.4375 -0.4375,34.8125 -0.4375,34.8125 -21.875,21.59375 -22.53125,20.875 c -0.50347,-0.17093 -1.0325,-0.28125 -1.59375,-0.28125 -2.71408,0 -4.9044,2.1764 -4.96875,4.875 l -8.875,-0.21875 -9.375,-0.1875 0,-3 c 0,-1.30518 -1.06982,-2.375 -2.375,-2.375 l -3.15625,0 c -1.30518,0 -2.375,1.06982 -2.375,2.375 l 0,9.25 c 0,1.30518 1.06982,2.34375 2.375,2.34375 l 3.15625,0 c 1.30518,0 2.375,-1.03857 2.375,-2.34375 l 0,-1.65625 9.625,0 10.71875,0 c 0.81373,0.57689 1.80161,0.90625 2.875,0.90625 2.75459,0 5,-2.21416 5,-4.96875 0,-0.73846 -0.18076,-1.43198 -0.46875,-2.0625 l 24.90625,-22.28125 22.09375,-22.15625 0,-35.9375 0,-35.9375 -8.65625,-8.78125 -8.625,-8.78125 -7,0 -10.46875,0 c -0.15912,-1.14833 -1.11902,-2.03125 -2.3125,-2.03125 l -9.28125,0 c -1.19281,0 -2.15255,0.88387 -2.3125,2.03125 l -64.09375,0 -66.9375,0 -2.625,-2.71875 -2.65625,-2.6875 0,-3 0,-12.0625 0,-18.625 0,-18.625 5.6875,-5.5 5.65625,-5.5 1.5625,0 c 1.50864,0 1.52825,0.11846 1.53125,-1.5 l 0,-1.5 7.1875,-7.625 7.15625,-7.625 0.0312,-17.09375 0.0312,-17.09375 1.90625,-0.5 1.90625,-0.5 27.3125,0 12.15625,0 0,1.65625 c 0,1.305177 1.06982,2.375 2.375,2.375 l 9.25,0 c 1.30518,0 2.34375,-1.069823 2.34375,-2.375 l 0,-1.65625 48.53125,0 30.75,0 c 0.78628,1.721437 2.51511,2.90625 4.53125,2.90625 2.75459,0 5,-2.214159 5,-4.96875 0,-2.754591 -2.24541,-5 -5,-5 -1.96633,0 -3.65649,1.159298 -4.46875,2.8125 l -65.4375,0 -68.59375,0 0,-2.5625 c 0,-1.52609 0.58313,-2.80136 -1.28125,-2.53125 l -1.28125,0 0,-5.6875 0,-5.6875 2.71875,-2.78125 2.71875,-2.8125 3.4375,0.03125 1.15625,0 c 0.71118,1.886648 2.52081,3.25 4.65625,3.25 2.75459,0 5,-2.245409 5,-5 0,-2.754591 -2.24541,-5 -5,-5 z m 140.375,2.375 c -2.01203,0.2043331 -3.63584,1.6258708 -4.21875,3.5 l -1.71875,0 -10.40625,0 -10.40625,0 c -1.06235,-3.07619 0.69988,-2.00452 -5.90625,-2.375 -3.79413,0.19651 -5.31029,-0.60984 -5.15625,3.625 l -0.28125,3.40625 -0.90625,1.0625 -0.875,1.0625 -1.90625,0 -4.0625,0 -2.78125,1.71875 -20.0625,0 -15.46875,0 -3.5625,-3.53125 -1.28125,-1.25 c 0.19154,-0.529593 0.3125,-1.09182 0.3125,-1.6875 0,-2.754591 -2.24541,-5 -5,-5 -2.75459,0 -4.96875,2.245409 -4.96875,5 0,2.754591 2.21416,5 4.96875,5 0.60862,0 1.17951,-0.144186 1.71875,-0.34375 l 1.78125,1.75 5.125,5.0625 19.09375,0.125 19.09375,0.09375 2.96875,-2.6875 3.25,0 3.28125,0 1.53125,-1.6875 1.53125,-1.71875 3.34375,0 c 2.09057,0 3.51297,0.69821 3.78125,-1.6875 L 323,14.3125 l 9.1875,0 9.15625,0 4.75,-0.0625 c 0.89085,1.359692 2.44057,2.28125 4.1875,2.28125 1.79633,0 3.34065,-0.981625 4.21875,-2.40625 l 0.3125,0 1.625,0.3125 1.59375,0.3125 0.25,7.78125 0.21875,7.75 3.46875,3.46875 3.46875,3.46875 5.71875,0 2.03125,0 C 373.99976,38.871952 375.68992,40 377.65625,40 c 2.75459,0 5,-2.214159 5,-4.96875 0,-2.754591 -2.24541,-5 -5,-5 -2.01614,0 -3.74497,1.216063 -4.53125,2.9375 l -1.28125,0 -4.59375,0 -2.21875,-2.3125 -2.21875,-2.34375 0.15625,-6.78125 0.15625,-6.78125 1.65625,-0.3125 0.0625,0 c 0.74193,1.823527 2.53495,3.09375 4.625,3.09375 2.75459,0 4.96875,-2.214159 4.96875,-4.96875 0,-2.754591 -2.21416,-5 -4.96875,-5 -1.84818,0 -3.45083,1.0064484 -4.3125,2.5 L 360.625,10.03125 355,10 c -0.65029,-1.9985391 -2.50328,-3.4375 -4.71875,-3.4375 -0.17216,0 -0.36358,-0.017028 -0.53125,0 z M 4.8125,33.4375 c -2.5150418,0.255416 -4.5,2.386321 -4.5,4.96875 0,2.754591 2.245409,5 5,5 0.3443239,0 0.6753174,-0.02731 1,-0.09375 l 7.4375,-1.1875 -0.21875,0.46875 5.3125,5.09375 5.3125,5.0625 0,24.25 0,24.21875 20.34375,20.4375 19.71875,19.78125 0,5.5 c 0,1.30518 1.069823,2.34375 2.375,2.34375 l 3.15625,0 c 1.305177,0 2.34375,-1.03857 2.34375,-2.34375 l 0,-9.25 c 0,-1.30518 -1.038573,-2.375 -2.34375,-2.375 l -3.15625,0 c -0.683042,0 -1.320461,0.28859 -1.75,0.75 L 48.0625,119.25 29.125,100.3125 l 0.09375,-24 0.0625,-24 -6.875,-7.03125 -6.84375,-7 L 15.53125,37 l -8,-3.03125 C 6.8590294,33.631289 6.1159224,33.4375 5.3125,33.4375 c -0.1721619,0 -0.3323305,-0.01703 -0.5,0 z m 426,16.8125 c -1.86784,0.189689 -3.41294,1.420431 -4.09375,3.09375 l -2.71875,0 -2.75,0 -1.71875,1.71875 -1.71875,1.6875 -76.125,-0.1875 c -41.87392,-0.10117 -78.82709,-0.1587 -82.09375,-0.125 -3.26672,0.02363 -9.73956,0.12085 -14.40625,0.21875 l -8.5,0.15625 -26.9375,27.0625 -26.9375,27.0625 0,14 0,8.875 c -1.06023,0.23046 -1.84375,1.18124 -1.84375,2.3125 l 0,9.25 c 0,1.30518 1.03857,2.375 2.34375,2.375 l 3.1875,0 c 1.30518,0 2.34375,-1.06982 2.34375,-2.375 l 0,-9.25 c 0,-1.09586 -0.73986,-2.01547 -1.75,-2.28125 l 0,-7.9375 -0.0312,-12.75 25.71875,-25.71875 25.75,-25.71875 180.875,-0.3125 2.03125,-1.90625 2.03125,-1.90625 3.5,0 c 0.8446,1.554769 2.48122,2.625 4.375,2.625 1.89122,0 3.49812,-1.073681 4.34375,-2.625 l 13.1875,0 c 0.66963,1.964606 2.49625,3.375 4.6875,3.375 2.75459,0 4.96875,-2.214159 4.96875,-4.96875 0,-2.754591 -2.21416,-5 -4.96875,-5 -1.78659,0 -3.33791,0.931994 -4.21875,2.34375 l -13.375,0 c -0.74185,-1.823688 -2.53484,-3.09375 -4.625,-3.09375 -0.17216,0 -0.36358,-0.01703 -0.53125,0 z M 118.125,68.8125 c -2.51504,0.255416 -4.46875,2.386321 -4.46875,4.96875 0,2.754591 2.21416,5 4.96875,5 0.43729,0 0.84584,-0.08179 1.25,-0.1875 l -0.96875,1.0625 -0.125,6.96875 0,21.875 0.5,7.1875 5.15625,5.25 5.15625,5.25 -0.1875,12.875 c -0.89442,0.33374 -1.53125,1.17392 -1.53125,2.1875 l 0,9.28125 c 0,1.30518 1.06982,2.34375 2.375,2.34375 l 3.15625,0 c 1.30518,0 2.34375,-1.03857 2.34375,-2.34375 l 0,-9.28125 c 0,-0.92949 -0.53431,-1.70995 -1.3125,-2.09375 l -0.25,-14.96875 -5.40625,-5.59375 -5.375,-5.5625 0,-5.1875 0,-3 1.25,0 c 1.30518,0 2.375,-1.03857 2.375,-2.34375 l 0,-9.25 c 0,-1.305177 -1.06982,-2.34375 -2.375,-2.34375 l -1.3125,0 0,-0.375 L 123.5,82.5 l 0.125,-8 -0.0625,0.0625 c 0.0395,-0.252804 0.0625,-0.517369 0.0625,-0.78125 0,-2.754591 -2.24541,-4.96875 -5,-4.96875 -0.17216,0 -0.33233,-0.01703 -0.5,0 z m -61.90625,2.59375 c -2.754591,0 -5,2.245409 -5,5 0,1.866993 1.043759,3.457569 2.5625,4.3125 l 0.03125,7 0.03125,6.78125 21.59375,21.5625 20,20 0,8.40625 c 0,1.30518 1.038573,2.34375 2.34375,2.34375 l 3.1875,0 c 1.30518,0 2.34375,-1.03857 2.34375,-2.34375 l 0,-9.28125 c 0,-1.30518 -1.03857,-2.34375 -2.34375,-2.34375 L 98,132.84375 80.40625,115.1875 58.75,93.46875 l 0,-6.5625 0,-6.25 c 1.457636,-0.870602 2.4375,-2.428765 2.4375,-4.25 0,-2.754591 -2.214159,-5 -4.96875,-5 z M 255.875,86.25 c -1.30518,0 -2.375,1.069823 -2.375,2.375 l 0,1.1875 -0.59375,0 -4.71875,0 -4.6875,0 -14.21875,14.21875 -14.21875,14.1875 0,10.375 0,6.65625 c -1.06023,0.23046 -1.84375,1.18124 -1.84375,2.3125 l 0,9.25 c 0,1.30518 1.03857,2.34375 2.34375,2.34375 l 3.15625,0 c 1.30518,0 2.375,-1.03857 2.375,-2.34375 l 0,-9.25 c 0,-0.98904 -0.60852,-1.83718 -1.46875,-2.1875 l 0,-5.1875 -0.4375,-9.25 13.28125,-13.34375 13.3125,-13.3125 66.78125,-0.15625 66.78125,-0.15625 10.75,10.71875 10.78125,10.71875 0,19.03125 0,19.03125 13.375,13.40625 12.53125,12.59375 c -0.0378,0.24766 -0.0625,0.49176 -0.0625,0.75 0,2.75459 2.24541,5 5,5 2.10069,0 3.89004,-1.2867 4.625,-3.125 l 1,0.21875 5.1875,0 4.625,0 c 0.72792,1.85294 2.51378,3.15625 4.625,3.15625 2.75459,0 5,-2.21416 5,-4.96875 0,-2.75459 -2.24541,-5 -5,-5 -1.87646,0 -3.49237,1.03105 -4.34375,2.5625 l -4.46875,0 -5.40625,0 -1.59375,-0.40625 c -0.87362,-1.4447 -2.43851,-2.40625 -4.25,-2.40625 -0.81858,0 -1.56845,0.21302 -2.25,0.5625 L 417.40625,163.84375 405.125,151.625 l 0,-19.21875 0,-19.21875 L 393.46875,101.5 381.8125,89.8125 324.53125,89.78125 267.46875,89.75 l 0,-1.125 c 0,-1.305177 -1.03857,-2.375 -2.34375,-2.375 l -9.25,0 z M 5.4375,109.1875 c -2.754591,0 -4.96875,2.24541 -4.96875,5 0,2.75459 2.214159,5 4.96875,5 1.3034013,0 2.4864599,-0.52514 3.375,-1.34375 l 3.28125,0 4,0 27.125,27.125 27.15625,27.15625 37.78125,0 37.78125,0 7.90625,7.9375 7.875,7.9375 0.0312,2.4375 c -1.06023,0.23046 -1.84375,1.14999 -1.84375,2.28125 l 0,9.28125 c 0,1.30518 1.03857,2.34375 2.34375,2.34375 l 3.1875,0 c 1.30518,0 2.34375,-1.03857 2.34375,-2.34375 l 0,-9.28125 c 0,-1.1862 -0.86197,-2.14441 -2,-2.3125 L 165.75,186.125 156.6875,177 l -9.0625,-9.125 -37.78125,0 -37.78125,0 -27.125,-27.125 -27.15625,-27.15625 -4.0625,0 -3.3125,0 C 10.108758,111.1233 7.9881453,109.1875 5.4375,109.1875 z m 250.125,10.21875 c -1.30518,0 -2.375,1.06982 -2.375,2.375 l 0,1.375 -2.5625,0.34375 -3.34375,3 0,5.65625 0,1.84375 c -1.00653,0.26818 -1.75,1.15669 -1.75,2.25 l 0,9.25 c 0,1.30518 1.03857,2.375 2.34375,2.375 l 3.1875,0 c 1.30518,0 2.34375,-1.06982 2.34375,-2.375 l 0,-9.25 c 0,-1.08297 -0.72682,-1.97229 -1.71875,-2.25 l -0.25,-4.71875 0.8125,-1.1875 0.8125,-1.1875 1.0625,-0.125 c 0.39573,0.30119 0.8996,0.5 1.4375,0.5 l 9.25,0 c 1.11767,0 2.03679,-0.77151 2.28125,-1.8125 l 40.6875,0 41.71875,0 8.28125,8.25 8.3125,8.25 0,30.1875 0,30.1875 17.375,17.3125 L 400.875,237 l 0,19.90625 0,19.90625 13.5625,13.65625 11.28125,11.3125 c -0.22182,0.56466 -0.34375,1.20038 -0.34375,1.84375 0,2.75459 2.21416,4.96875 4.96875,4.96875 2.75459,0 5,-2.21416 5,-4.96875 0,-2.75459 -2.24541,-5 -5,-5 -0.3896,0 -0.76111,0.0405 -1.125,0.125 L 418.3125,287.84375 405.125,274.5625 l 0,-19.625 0,-19.59375 -17.40625,-17.375 -17.40625,-17.40625 0,-30.09375 0,-30.125 -9.53125,-9.5625 -9.53125,-9.5625 -41.84375,0 -41.84375,0 -0.4375,0.0625 c -0.21896,-1.07548 -1.17047,-1.875 -2.3125,-1.875 l -9.25,0 z m -246.59375,2.375 c -2.754591,0 -5,2.21416 -5,4.96875 0,2.75459 2.245409,5 5,5 1.34625,0 2.571445,-0.53929 3.46875,-1.40625 l 23.84375,23.78125 26.53125,26.5 37.28125,0 37.28125,0 7.03125,6.96875 7,7 0,1.46875 c -0.94503,0.3063 -1.625,1.20032 -1.625,2.25 l 0,9.25 c 0,1.30518 1.03857,2.34375 2.34375,2.34375 l 3.15625,0 c 1.30518,0 2.375,-1.03857 2.375,-2.34375 l 0,-9.25 c 0,-1.12048 -0.76753,-2.07089 -1.8125,-2.3125 l -0.3125,-3.3125 -8.71875,-8.59375 -8.71875,-8.5625 -37.125,0 -37.09375,0 -25.84375,-25.6875 -24.15625,-24 c -0.428166,-2.3195 -2.46285,-4.0625 -4.90625,-4.0625 z m 295.5,56.78125 c -1.20297,0 -2.16533,0.90076 -2.3125,2.0625 l -4.78125,0 -8.15625,0 -11.625,11.71875 -7.34375,7.4375 -2.375,0 c -1.30518,0 -2.34375,1.03857 -2.34375,2.34375 l 0,9.25 c 0,1.30518 1.03857,2.34375 2.34375,2.34375 l 3.15625,0 c 1.30518,0 2.375,-1.03857 2.375,-2.34375 l 0,-8.1875 0.125,0 9.125,-9.15625 9.15625,-9.15625 7.375,0 3.09375,0 c 0.32626,0.90887 1.16359,1.5625 2.1875,1.5625 l 9.28125,0 c 1.02506,0 1.86208,-0.65203 2.1875,-1.5625 l 1.875,0 3.53125,0 3.53125,0 3.625,3.5625 3.65625,3.5625 0,19.25 0,15.53125 c -1.6532,0.81226 -2.78125,2.50242 -2.78125,4.46875 0,2.75459 2.24541,4.96875 5,4.96875 2.75459,0 4.96875,-2.21416 4.96875,-4.96875 0,-2.04104 -1.21302,-3.79038 -2.96875,-4.5625 l 0,-17.1875 0,-19.40625 -4.71875,-4.53125 -4.71875,-4.53125 -9.125,-0.28125 -1.75,-0.0312 c -0.1066,-1.20502 -1.07886,-2.15625 -2.3125,-2.15625 l -9.28125,0 z M 50.84375,193.34375 40.25,203.9375 l -10.5625,10.625 -10.0625,0 -7.1875,0 c -0.36581,-2.39409 -2.409902,-4.25 -4.90625,-4.25 -2.754591,0 -5,2.24541 -5,5 0,2.75459 2.245409,5 5,5 1.1393638,0 2.1602081,-0.41954 3,-1.0625 l 6.5625,-0.28125 14.25,-0.3125 11.0625,-10.96875 11.03125,-10.9375 36,0 36,0 1.875,1.75 1.625,1.53125 c -0.62648,0.42255 -1.0625,1.15301 -1.0625,1.96875 l 0,9.25 c 0,1.30518 1.06982,2.34375 2.375,2.34375 l 3.15625,0 c 1.30518,0 2.34375,-1.03857 2.34375,-2.34375 l 0,-9.25 c 0,-1.26101 -0.97526,-2.27592 -2.21875,-2.34375 L 133.46875,198 131.25,195.6875 l -2.21875,-2.34375 -39.09375,0 -39.09375,0 z m 69.40625,7.625 c -1.30518,0 -2.34375,1.03857 -2.34375,2.34375 l 0,9.25 c 0,1.22895 0.9266,2.23074 2.125,2.34375 l 0,2.40625 0,2.53125 6.5,6.6875 6.5,6.6875 22.59375,0 22.625,0 2.78125,2.875 L 183,238.125 c -0.67849,0.41265 -1.125,1.17585 -1.125,2.03125 l 0,9.25 c 0,1.13169 0.7829,2.0825 1.84375,2.3125 l 0,0.75 -0.375,19.4375 c -0.11304,5.72023 -0.14647,10.60634 -0.15625,14.21875 -0.82544,0.36559 -1.40625,1.19234 -1.40625,2.15625 l 0,9.25 c 0,1.30518 1.03857,2.34375 2.34375,2.34375 l 3.1875,0 c 1.30518,0 2.34375,-1.03857 2.34375,-2.34375 l 0,-9.25 c 0,-1.09586 -0.73986,-2.01547 -1.75,-2.28125 l 0,-14.125 0,-19.875 0,-0.3125 c 1.05562,-0.23386 1.84375,-1.15325 1.84375,-2.28125 l 0,-9.25 c 0,-1.17215 -0.85061,-2.12757 -1.96875,-2.3125 l -0.4375,-1.3125 -3.71875,-3.78125 -3.71875,-3.78125 -22.0625,0 -22.09375,0 -5.6875,-5.65625 -5.71875,-5.65625 c 0.0686,-1.04793 0.0937,-2.9375 0.0937,-2.9375 0.79603,-0.37727 1.34375,-1.21372 1.34375,-2.15625 l 0,-9.25 c 0,-1.30518 -1.06982,-2.34375 -2.375,-2.34375 l -3.15625,0 z M 98.46875,201.375 c -1.305177,0 -2.375,1.03857 -2.375,2.34375 l 0,9.28125 c 0,0.79958 0.394387,1.48074 1,1.90625 0.10867,3.32235 0.208214,7.41774 0.21875,10.6875 l 0.03125,6.6875 c -1.39287,0.88467 -2.3125,2.44651 -2.3125,4.21875 0,2.75459 2.214159,4.96875 4.96875,4.96875 2.75459,0 5,-2.21416 5,-4.96875 0,-1.62002 -0.80342,-3.05767 -2,-3.96875 l 0.0937,-7.09375 c 0.0446,-3.08451 -0.0944,-7.12638 -0.21875,-10.46875 0.65874,-0.41683 1.09375,-1.12832 1.09375,-1.96875 l 0,-9.28125 c 0,-1.30518 -1.03857,-2.34375 -2.34375,-2.34375 l -3.15625,0 z M 237.25,202.75 c -1.30518,0 -2.34375,1.03857 -2.34375,2.34375 l 0,9.25 c 0,0.92949 0.53431,1.7412 1.3125,2.125 l -0.0625,42.3125 c -0.0245,13.78944 -0.0396,24.83995 -0.0312,33 -0.6914,0.40964 -1.15625,1.13487 -1.15625,2 l 0,9.28125 c 0,1.30518 1.03857,2.34375 2.34375,2.34375 l 3.1875,0 c 1.30518,0 2.34375,-1.03857 2.34375,-2.34375 l 0,-9.28125 c 0,-0.8801 -0.47612,-1.62669 -1.1875,-2.03125 l -0.0312,-38.46875 -0.0312,-36.875 c 0.71138,-0.40456 1.1875,-1.1824 1.1875,-2.0625 l 0,-9.25 c 0,-1.30518 -1.03857,-2.34375 -2.34375,-2.34375 l -3.1875,0 z m -31.59375,0.5625 c -1.30518,0 -2.375,1.06982 -2.375,2.375 l 0,9.25 c 0,1.03435 0.67025,1.90035 1.59375,2.21875 l 0,10.90625 -0.34375,43.28125 0.3125,14.25 c -1.13681,0.16913 -2,1.12716 -2,2.3125 l 0,9.25 c 0,1.30518 1.03857,2.375 2.34375,2.375 l 3.1875,0 c 1.30518,0 2.34375,-1.06982 2.34375,-2.375 l 0,-9.25 c 0,-0.79958 -0.39439,-1.48074 -1,-1.90625 l 0.0625,-14.8125 0.0625,-25.03125 -0.15625,-23.71875 -0.125,-5.28125 c 0.92853,-0.31563 1.59375,-1.18081 1.59375,-2.21875 l 0,-9.25 c 0,-1.30518 -1.03857,-2.375 -2.34375,-2.375 l -3.15625,0 z m -129.375,2.0625 c -1.305177,0 -2.375,1.03857 -2.375,2.34375 l 0,9.28125 c 0,0.24472 0.05637,0.46592 0.125,0.6875 l -8.125,8.125 -11.21875,11.25 0,13.375 0,13.375 -8.28125,8.59375 c -4.55001,4.72717 -12.62687,13.13264 -17.96875,18.65625 l -9.71875,10.03125 -5.3125,0 -1.65625,0 C 11.438826,298.63819 9.3213007,296.75 6.78125,296.75 c -2.754591,0 -4.96875,2.24541 -4.96875,5 0,2.75459 2.214159,4.96875 4.96875,4.96875 0.7936773,0 1.5213583,-0.20142 2.1875,-0.53125 l 4.40625,0.0312 6.09375,0.0625 L 39.1875,286.09375 58.875,265.875 58.90625,252.46875 58.9375,239.0625 69.40625,228.625 78.75,219.34375 l 0.6875,0 c 1.305177,0 2.34375,-1.03857 2.34375,-2.34375 l 0,-9.28125 c 0,-1.30518 -1.038573,-2.34375 -2.34375,-2.34375 l -3.15625,0 z M 376.625,232.46875 c -2.75459,0 -4.96875,2.24541 -4.96875,5 0,2.01614 1.18481,3.74497 2.90625,4.53125 l 0,23.21875 0,19.53125 c -0.99491,0.27579 -1.71875,1.19617 -1.71875,2.28125 l 0,9.25 c 0,1.30518 1.03857,2.34375 2.34375,2.34375 l 3.1875,0 c 1.30518,0 2.34375,-1.03857 2.34375,-2.34375 l 0,-9.25 c 0,-1.01428 -0.63585,-1.88551 -1.53125,-2.21875 L 379,265.65625 378.8125,241.9375 c 1.6532,-0.81226 2.8125,-2.50242 2.8125,-4.46875 0,-2.75459 -2.24541,-5 -5,-5 z M 75.75,236.4375 c -2.515042,0.25542 -4.46875,2.38632 -4.46875,4.96875 0,2.01532 1.185936,3.74452 2.90625,4.53125 l 0,2.4375 0,3.0625 18.03125,18.0625 15.125,15.125 c 0.70365,1.90133 2.51028,3.25 4.65625,3.25 2.75459,0 5,-2.21416 5,-4.96875 0,-2.75459 -2.24541,-5 -5,-5 -1.42604,0 -2.71599,0.60301 -3.625,1.5625 l -14.78125,-14.75 -15.15625,-15.125 0,-3.71875 c 1.664697,-0.80808 2.8125,-2.49401 2.8125,-4.46875 0,-2.75459 -2.214159,-4.96875 -4.96875,-4.96875 -0.172162,0 -0.363581,-0.017 -0.53125,0 z m 62.65625,18.28125 c -2.51754,0 -4.59782,1.85734 -4.9375,4.28125 -0.60865,1.12088 -1.91927,3.41382 -3.3125,5.28125 l -1.78125,2.375 c -0.39334,-0.0997 -0.7944,-0.1875 -1.21875,-0.1875 -2.75459,0 -5,2.24541 -5,5 0,2.75459 2.24541,5 5,5 2.75459,0 4.96875,-2.24541 4.96875,-5 0,-0.68865 -0.12261,-1.34079 -0.375,-1.9375 -0.004,-0.008 0.004,-0.0228 0,-0.0312 l 1.90625,-2.4375 2.375,-2.96875 c 0.70229,0.37763 1.52177,0.59375 2.375,0.59375 2.75459,0 4.96875,-2.21416 4.96875,-4.96875 0,-2.75459 -2.21416,-5 -4.96875,-5 z m -40.5,32.03125 c -2.754591,0 -5,2.24541 -5,5 0,2.75459 2.245409,5 5,5 2.75459,0 4.96875,-2.24541 4.96875,-5 0,-2.75459 -2.21416,-5 -4.96875,-5 z m 29.46875,0 c -2.75459,0 -5,2.24541 -5,5 0,2.75459 2.24541,5 5,5 2.75459,0 4.96875,-2.24541 4.96875,-5 0,-2.75459 -2.21416,-5 -4.96875,-5 z"
       id="path4391"
       transform="translate(187.43369,477.34301)"
       inkscape:connector-curvature="0" />
  </g>
</svg>
