<?xml version="1.0" encoding="UTF-8" standalone="no"?>
<!-- Created with Inkscape (http://www.inkscape.org/) -->

<svg
   xmlns:dc="http://purl.org/dc/elements/1.1/"
   xmlns:cc="http://creativecommons.org/ns#"
   xmlns:rdf="http://www.w3.org/1999/02/22-rdf-syntax-ns#"
   xmlns:svg="http://www.w3.org/2000/svg"
   xmlns="http://www.w3.org/2000/svg"
   version="1.1"
   width="512"
   height="512"
   id="svg3314">
  <metadata
     id="metadata3320">
    <rdf:RDF>
      <cc:Work
         rdf:about="">
        <dc:format>image/svg+xml</dc:format>
        <dc:type
           rdf:resource="http://purl.org/dc/dcmitype/StillImage" />
        <dc:title></dc:title>
      </cc:Work>
    </rdf:RDF>
  </metadata>
  <defs
     id="defs3318" />
  <path
     d="m 273.99609,511.9375 79.12891,0 0,-198.93359 66.98482,0 L 430.00931,237 353.125,237 c 0,0 0,-41.74516 0,-52.35177 0,-23.59969 12.46275,-34.64823 36.65527,-34.64823 16.37064,0 43.2627,0 43.2627,0 l 0.11328,-71 c 0,0 -9.01505,-2 -46.40625,-2 -37.3912,0 -33.625,0.9375 -33.625,0.9375 0,0 -34.88383,3.638043 -57.62509,31.27461 -22.74126,27.63657 -21.50382,63.28675 -21.50382,63.28675 l 0,64.50114 -66.99609,0 0,76.00391 66.99609,0 z"
     id="path3348"
     style="fill:#ffffff;fill-opacity:1;stroke:none" />
</svg>
