<?xml version="1.0" encoding="UTF-8" standalone="no"?>
<!-- Created with Inkscape (http://www.inkscape.org/) -->

<svg
   xmlns:dc="http://purl.org/dc/elements/1.1/"
   xmlns:cc="http://creativecommons.org/ns#"
   xmlns:rdf="http://www.w3.org/1999/02/22-rdf-syntax-ns#"
   xmlns:svg="http://www.w3.org/2000/svg"
   xmlns="http://www.w3.org/2000/svg"
   xmlns:sodipodi="http://sodipodi.sourceforge.net/DTD/sodipodi-0.dtd"
   xmlns:inkscape="http://www.inkscape.org/namespaces/inkscape"
   version="1.1"
   width="1140"
   height="100"
   id="svg3055"
   inkscape:version="0.48.3.1 r9886"
   sodipodi:docname="logo.svg">
  <sodipodi:namedview
     pagecolor="#ffffff"
     bordercolor="#666666"
     borderopacity="1"
     objecttolerance="10"
     gridtolerance="10"
     guidetolerance="10"
     inkscape:pageopacity="0"
     inkscape:pageshadow="2"
     inkscape:window-width="1366"
     inkscape:window-height="741"
     id="namedview12"
     showgrid="false"
     inkscape:zoom="0.38580738"
     inkscape:cx="449.28338"
     inkscape:cy="319.90414"
     inkscape:window-x="0"
     inkscape:window-y="-5"
     inkscape:window-maximized="1"
     inkscape:current-layer="svg3055"
     fit-margin-top="0"
     fit-margin-left="0"
     fit-margin-right="0"
     fit-margin-bottom="0" />
  <metadata
     id="metadata3061">
    <rdf:RDF>
      <cc:Work
         rdf:about="">
        <dc:format>image/svg+xml</dc:format>
        <dc:type
           rdf:resource="http://purl.org/dc/dcmitype/StillImage" />
        <dc:title />
      </cc:Work>
    </rdf:RDF>
  </metadata>
  <defs
     id="defs3059" />
  <g
     id="layer1"
     style="display:inline"
     transform="translate(-2,0)">
    <path
       d="m 190,0 0,10 -10,0 0,10 -10,0 0,60 10,0 0,10 10,0 0,10 60,0 0,-10 10,0 0,10 50,0 0,-10 10,0 0,10 30,0 0,-10 30,0 0,10 60,0 0,-10 50,0 0,10 50,0 0,-10 30,0 0,10 30,0 0,-10 20,0 0,10 60,0 0,-10 10,0 0,10 30,0 0,-10 10,0 0,10 50,0 0,-10 10,0 0,-10 0,-70 -10,0 0,-10 -50,0 0,10 -20,0 0,-10 -20,0 0,10 -20,0 0,-10 -20,0 0,10 -10,0 0,-10 -20,0 0,10 -10,0 0,-10 -60,0 0,10 -10,0 0,-10 -20,0 0,10 -20,0 0,-10 -20,0 0,10 -20,0 0,-10 -50,0 0,10 -10,0 0,-10 -20,0 0,10 -40,0 0,-10 -20,0 0,10 -20,0 0,-10 -40,0 0,10 -20,0 0,-10 -50,0 z"
       id="path3069"
       style="fill:#2c2c2c;fill-opacity:1;stroke:none"
       inkscape:connector-curvature="0" />
    <path
       d="m 2,14 0,8 16,0 0,64 8,0 0,-64 16,0 0,-8 -16,0 -8,0 -16,0 z m 48,0 0,32 0,8 0,32 8,0 0,-32 24,0 0,32 8,0 0,-72 -8,0 0,32 -24,0 0,-32 -8,0 z m 48,0 0,8 0,24 0,8 0,32 8,0 32,0 0,-8 -32,0 0,-24 24,0 0,-8 -24,0 0,-24 32,0 0,-8 -32,0 -8,0 z"
       id="path4802"
       style="fill:#2c2c2c;fill-opacity:1;stroke:none"
       inkscape:connector-curvature="0" />
    <path
       d="m 822,14 0,8 24,0 0,-8 -24,0 z m 24,8 0,8 8,0 0,-8 -8,0 z m -24,0 -8,0 0,24 8,0 0,-24 z m 0,24 0,8 24,0 0,-8 -24,0 z m 24,8 0,24 8,0 0,-24 -8,0 z m 0,24 -24,0 0,8 24,0 0,-8 z m -24,0 0,-8 -8,0 0,8 8,0 z m 48,-64 0,8 24,0 0,-8 -24,0 z m 24,8 0,56 8,0 0,-56 -8,0 z m 0,56 -24,0 0,8 24,0 0,-8 z m -24,0 0,-56 -8,0 0,56 8,0 z m 48,-64 0,8 24,0 0,-8 -24,0 z m 24,8 0,8 8,0 0,-8 -8,0 z m -24,0 -8,0 0,56 8,0 0,-56 z m 0,56 0,8 24,0 0,-8 -24,0 z m 24,0 8,0 0,-8 -8,0 0,8 z m 16,-64 0,8 16,0 0,56 -16,0 0,8 19,0 5,0 19,0 0,-8 -19,0 0,-56 16,0 0,-8 -16,0 -24,0 z m 48,0 0,8 0,64 24,0 16,0 0,-8 -16,0 -16,0 0,-24 24,0 0,-8 -24,0 0,-24 16,0 16,0 0,-8 -16,0 -24,0 z m 48,0 0,8 16,0 0,64 8,0 0,-64 16,0 0,-8 -16,0 -8,0 -16,0 z m 48,0 0,24 8,0 0,-24 -8,0 z m 8,24 0,8 8,0 0,-8 -8,0 z m 8,8 0,40 8,0 0,-40 -8,0 z m 8,0 8,0 0,-8 -8,0 0,8 z m 8,-8 8,0 0,-24 -8,0 0,24 z"
       id="path4802-3"
       style="fill:#2c2c2c;fill-opacity:1;stroke:none;display:inline"
       inkscape:connector-curvature="0" />
  </g>
  <g
     id="g4627"
     transform="translate(-2,0)">
    <path
       d="m 190,10 0,10 40,0 0,-10 -40,0 z m 0,10 -10,0 0,50 10,0 0,-50 z m 0,50 0,10 40,0 0,-10 -40,0 z m 70,-60 0,10 30,0 0,-10 -30,0 z m 30,10 0,50 10,0 0,-50 -10,0 z m 0,50 -30,0 0,10 30,0 0,-10 z m -30,0 0,-50 -10,0 0,50 10,0 z m 60,-60 0,70 10,0 0,-50 10,0 0,-10 -10,0 0,-10 -10,0 z m 20,20 0,10 10,0 0,-10 -10,0 z m 10,10 0,10 10,0 0,-10 -10,0 z m 10,0 10,0 0,-10 -10,0 0,10 z m 10,-10 10,0 0,50 10,0 0,-70 -10,0 0,10 -10,0 0,10 z m 40,-20 0,70 10,0 0,-30 30,0 0,-10 -30,0 0,-20 30,0 0,-10 -30,0 -10,0 z m 40,10 0,20 10,0 0,-20 -10,0 z m 30,-10 0,60 10,0 0,-60 -10,0 z m 10,60 0,10 30,0 0,-10 -30,0 z m 30,0 10,0 0,-60 -10,0 0,60 z m 30,-60 0,10 20,0 0,60 10,0 0,-60 20,0 0,-10 -20,0 -30,0 z m 70,0 0,70 10,0 0,-70 -10,0 z m 30,0 0,70 10,0 0,-50 10,0 0,-10 -10,0 0,-10 -10,0 z m 20,20 0,10 10,0 0,-10 -10,0 z m 10,10 0,10 10,0 0,30 10,0 0,-70 -10,0 0,30 -10,0 z m 50,-30 0,10 30,0 10,0 0,-10 -10,0 -30,0 z m 0,10 -10,0 0,50 10,0 0,-50 z m 0,50 0,10 30,0 0,-10 -30,0 z m 30,0 10,0 0,-30 -10,0 -10,0 0,10 10,0 0,20 z"
       id="path4224"
       style="fill:#ffffff;fill-opacity:1;stroke:none;display:inline"
       inkscape:connector-curvature="0" />
  </g>
</svg>
